<svg width="34" height="35" viewBox="0 0 34 35" fill="none" xmlns="http://www.w3.org/2000/svg">
<mask id="mask0_3862_4112" style="mask-type:luminance" maskUnits="userSpaceOnUse" x="0" y="0" width="34" height="35">
<path d="M0.53125 0H33.5312V35H0.53125V0Z" fill="white"/>
</mask>
<g mask="url(#mask0_3862_4112)">
<path d="M17.0312 22.4634C12.9918 22.4634 9.20819 21.8634 6.37741 20.7738C3.96409 19.845 2.46484 18.5945 2.46484 17.5104C2.46484 16.4263 3.96409 15.1758 6.37741 14.247C7.62767 13.7657 9.06388 13.38 10.6258 13.0994C10.4952 14.5185 10.4278 15.9951 10.4278 17.5C10.4278 18.2852 10.4464 19.0744 10.4832 19.8455C10.5101 20.4112 10.9636 20.8489 11.4976 20.8178C12.0308 20.7892 12.4413 20.3075 12.4143 19.7419C12.3792 19.0051 12.3614 18.2508 12.3614 17.5C12.3614 15.8845 12.4418 14.3075 12.5971 12.8088C14.0135 12.6432 15.5041 12.5574 17.0312 12.5574C17.5323 12.5574 18.0372 12.5669 18.532 12.5856C19.0658 12.6055 19.5136 12.1634 19.5326 11.5974C19.5516 11.0315 19.1345 10.5563 18.6009 10.5361C18.0833 10.5165 17.5552 10.5066 17.0312 10.5066C15.6083 10.5066 14.2121 10.5785 12.8705 10.7179C13.1353 9.0568 13.4995 7.52951 13.9543 6.20047C14.8301 3.64082 16.0091 2.05078 17.0312 2.05078C18.0534 2.05078 19.2325 3.64082 20.1082 6.20047C21.1355 9.20281 21.7012 13.2157 21.7012 17.5C21.7012 19.1231 21.62 20.7073 21.4633 22.2123C20.0475 22.3776 18.5577 22.4634 17.0312 22.4634ZM31.258 13.7912C30.5959 13.3091 29.7918 12.8649 28.8728 12.4704L29.1403 12.3745C29.6461 12.1931 29.9176 11.6112 29.7465 11.0747C29.5755 10.5381 29.0264 10.2506 28.521 10.4317L25.4681 11.5264C25.1799 11.6298 24.9543 11.8711 24.8593 12.1777C24.7643 12.4843 24.8109 12.8205 24.9852 13.0851L26.831 15.8869C27.019 16.1724 27.3192 16.3251 27.6243 16.3251C27.8155 16.3251 28.0086 16.2652 28.1772 16.1402C28.6149 15.8159 28.7218 15.1766 28.416 14.7124L28.2073 14.3956C28.9675 14.7257 29.6264 15.0907 30.1636 15.4819C31.0884 16.1552 31.5977 16.8756 31.5977 17.5104C31.5977 18.5945 30.0984 19.845 27.6851 20.7738C26.4344 21.2552 24.9975 21.6411 23.4349 21.9218C23.5667 20.4961 23.6348 19.0124 23.6348 17.5C23.6348 12.9832 23.0279 8.72177 21.9258 5.50088C21.3682 3.87112 20.7065 2.57633 19.9591 1.65231C19.3493 0.898514 18.3464 0 17.0312 0C15.7161 0 14.7132 0.898514 14.1034 1.65231C13.356 2.57633 12.6943 3.87112 12.1367 5.50088C11.5887 7.10261 11.1631 8.96164 10.8737 10.9815C8.97377 11.2883 7.22496 11.7391 5.71786 12.3191C4.18123 12.9106 2.96036 13.6123 2.08921 14.4051C1.37849 15.0518 0.53125 16.1156 0.53125 17.5104C0.53125 18.9052 1.37849 19.9689 2.08921 20.6157C2.96036 21.4084 4.18123 22.1102 5.71786 22.7016C8.75469 23.8705 12.7726 24.5141 17.0312 24.5141C18.4531 24.5141 19.8481 24.4424 21.1887 24.3033C20.9242 25.9562 20.5611 27.476 20.1082 28.7995C19.2325 31.3591 18.0534 32.9492 17.0312 32.9492C16.4436 32.9492 15.7686 32.3859 15.1308 31.3632C14.7729 30.7893 14.4373 30.091 14.1318 29.2892L14.3376 29.45C14.7672 29.7859 15.3726 29.689 15.6895 29.2331C16.0063 28.7772 15.9147 28.1354 15.4849 27.7993L12.8909 25.7712C12.6459 25.5797 12.3302 25.5216 12.0389 25.6146C11.7474 25.7075 11.5143 25.9405 11.4095 26.2436L10.3001 29.4526C10.1163 29.9843 10.3737 30.5734 10.8749 30.7683C10.9848 30.811 11.0972 30.8312 11.2077 30.8312C11.6018 30.8312 11.9719 30.5739 12.1155 30.1586L12.2395 29.7998C13.4542 33.1409 15.1385 35 17.0312 35C18.3464 35 19.3493 34.1014 19.9591 33.3476C20.7065 32.4236 21.3682 31.1288 21.9258 29.4991C22.472 27.9029 22.8965 26.0513 23.1858 24.0398C25.0869 23.7329 26.8367 23.282 28.3446 22.7016C29.8813 22.1102 31.1021 21.4084 31.9733 20.6157C32.684 19.9689 33.5312 18.9052 33.5312 17.5104C33.5312 16.5688 33.1369 15.1592 31.258 13.7912Z" fill="url(#paint0_linear_3862_4112)"/>
</g>
<defs>
<linearGradient id="paint0_linear_3862_4112" x1="23.9471" y1="25.8904" x2="2.11046" y2="25.8904" gradientUnits="userSpaceOnUse">
<stop stop-color="#F8ECDB"/>
<stop offset="1" stop-color="#626263"/>
</linearGradient>
</defs>
</svg>
