<svg width="74" height="33" viewBox="0 0 74 33" fill="none" xmlns="http://www.w3.org/2000/svg">
<path d="M33.8678 0.38624H35.7176C35.8377 0.637937 35.9568 0.889635 36.0758 1.14238C36.1601 1.31992 36.2391 1.49956 36.3276 1.67397C36.3644 1.74812 36.3634 1.81183 36.3349 1.88702C36.1843 2.28494 36.0379 2.68494 35.8925 3.08389C35.8778 3.12462 35.8483 3.16431 35.8588 3.2134C35.9083 3.22175 35.9283 3.18415 35.9536 3.16013C36.9765 2.24003 38.0447 1.37214 39.097 0.486501C39.1855 0.41235 39.2719 0.377885 39.3899 0.378929C39.8955 0.385196 40.4012 0.382062 40.9058 0.382062C40.9521 0.382062 40.9974 0.382062 41.067 0.382062C40.5192 1.7805 39.9756 3.1664 39.432 4.55126C39.5121 4.52828 39.5553 4.47293 39.6037 4.42384C40.0283 4.00086 40.4507 3.5758 40.8763 3.15282C41.5863 2.44577 42.2974 1.73977 43.0084 1.03272C43.2044 0.837415 43.3993 0.64107 43.5941 0.444726C43.63 0.408172 43.6637 0.379974 43.7227 0.379974C44.3631 0.382062 45.0026 0.382062 45.6431 0.382062C45.6589 0.382062 45.6747 0.387284 45.6989 0.390418C46.0307 1.86718 46.3626 3.3429 46.6965 4.82802H45.6652C45.5872 4.44473 45.5082 4.0583 45.4303 3.67501C45.3839 3.65413 45.3407 3.66248 45.2997 3.66248C44.4148 3.66248 43.5309 3.66248 42.6461 3.66039C42.5576 3.66039 42.4996 3.6865 42.4396 3.74917C42.1225 4.08337 41.7991 4.41235 41.481 4.74656C41.4177 4.81235 41.3535 4.83846 41.2618 4.83846C40.0072 4.83533 38.7515 4.83637 37.4969 4.83637H37.3462C37.5548 4.30269 37.7539 3.78468 37.9593 3.2677C38.1658 2.75073 38.3523 2.22541 38.583 1.71992C37.6033 2.60452 36.5741 3.42645 35.5754 4.28285C35.4975 4.34969 35.4216 4.37893 35.3099 4.34864C35.1309 3.91418 34.9434 3.47345 34.7664 3.02854C34.5894 2.58363 34.3671 2.15648 34.2523 1.69277C33.8625 2.7382 33.4391 3.77423 33.0345 4.82175H30.0449C29.9701 4.44055 29.8964 4.0583 29.8226 3.68337C29.7721 3.66248 29.7341 3.66875 29.6962 3.66875C28.8408 3.66875 27.9865 3.66875 27.1311 3.66666C27.0479 3.66666 26.9899 3.69277 26.9341 3.75125C26.6139 4.08337 26.2894 4.41026 25.9692 4.74238C25.9091 4.804 25.848 4.8322 25.7606 4.83115C25.4783 4.82593 25.1959 4.83011 24.9136 4.82906C24.8736 4.82906 24.8304 4.84264 24.7862 4.80713C24.8178 4.77267 24.8483 4.73924 24.8799 4.70791C25.3792 4.21079 25.8786 3.7147 26.3779 3.21757C27.2954 2.30269 28.213 1.38781 29.1274 0.470835C29.1885 0.410261 29.2474 0.382062 29.3349 0.383107C29.9248 0.387284 30.5147 0.385196 31.1036 0.385196C31.1447 0.385196 31.1879 0.377885 31.2405 0.398773C31.5555 1.79407 31.8726 3.19564 32.1897 4.59721C32.1971 4.59825 32.2044 4.60034 32.2118 4.60139C32.7627 3.19877 33.3126 1.79616 33.8657 0.387284L33.8678 0.38624ZM45.3081 3.04525C45.1806 2.41444 45.0574 1.80661 44.9299 1.1758C44.3179 1.81078 43.7279 2.42384 43.1296 3.04525H45.3081ZM29.6983 3.05256C29.5919 2.45099 29.4876 1.86614 29.3791 1.2583C28.786 1.86196 28.2088 2.45099 27.6178 3.05256H29.6983Z" fill="white"/>
<path d="M33.8678 0.38624H35.7176C35.8377 0.637937 35.9568 0.889635 36.0758 1.14238C36.1601 1.31992 36.2391 1.49956 36.3276 1.67397C36.3644 1.74812 36.3634 1.81183 36.3349 1.88702C36.1843 2.28494 36.0379 2.68494 35.8925 3.08389C35.8778 3.12462 35.8483 3.16431 35.8588 3.2134C35.9083 3.22175 35.9283 3.18415 35.9536 3.16013C36.9765 2.24003 38.0447 1.37214 39.097 0.486501C39.1855 0.41235 39.2719 0.377885 39.3899 0.378929C39.8955 0.385196 40.4012 0.382062 40.9058 0.382062C40.9521 0.382062 40.9974 0.382062 41.067 0.382062C40.5192 1.7805 39.9756 3.1664 39.432 4.55126C39.5121 4.52828 39.5553 4.47293 39.6037 4.42384C40.0283 4.00086 40.4507 3.5758 40.8763 3.15282C41.5863 2.44577 42.2974 1.73977 43.0084 1.03272C43.2044 0.837415 43.3993 0.64107 43.5941 0.444726C43.63 0.408172 43.6637 0.379974 43.7227 0.379974C44.3631 0.382062 45.0026 0.382062 45.6431 0.382062C45.6589 0.382062 45.6747 0.387284 45.6989 0.390418C46.0307 1.86718 46.3626 3.3429 46.6965 4.82802H45.6652C45.5872 4.44473 45.5082 4.0583 45.4303 3.67501C45.3839 3.65413 45.3407 3.66248 45.2997 3.66248C44.4148 3.66248 43.5309 3.66248 42.6461 3.66039C42.5576 3.66039 42.4996 3.6865 42.4396 3.74917C42.1225 4.08337 41.7991 4.41235 41.481 4.74656C41.4177 4.81235 41.3535 4.83846 41.2618 4.83846C40.0072 4.83533 38.7515 4.83637 37.4969 4.83637H37.3462C37.5548 4.30269 37.7539 3.78468 37.9593 3.2677C38.1658 2.75073 38.3523 2.22541 38.583 1.71992C37.6033 2.60452 36.5741 3.42645 35.5754 4.28285C35.4975 4.34969 35.4216 4.37893 35.3099 4.34864C35.1309 3.91418 34.9434 3.47345 34.7664 3.02854C34.5894 2.58363 34.3671 2.15648 34.2523 1.69277C33.8625 2.7382 33.4391 3.77423 33.0345 4.82175H30.0449C29.9701 4.44055 29.8964 4.0583 29.8226 3.68337C29.7721 3.66248 29.7341 3.66875 29.6962 3.66875C28.8408 3.66875 27.9865 3.66875 27.1311 3.66666C27.0479 3.66666 26.9899 3.69277 26.9341 3.75125C26.6139 4.08337 26.2894 4.41026 25.9692 4.74238C25.9091 4.804 25.848 4.8322 25.7606 4.83115C25.4783 4.82593 25.1959 4.83011 24.9136 4.82906C24.8736 4.82906 24.8304 4.84264 24.7862 4.80713C24.8178 4.77267 24.8483 4.73924 24.8799 4.70791C25.3792 4.21079 25.8786 3.7147 26.3779 3.21757C27.2954 2.30269 28.213 1.38781 29.1274 0.470835C29.1885 0.410261 29.2474 0.382062 29.3349 0.383107C29.9248 0.387284 30.5147 0.385196 31.1036 0.385196C31.1447 0.385196 31.1879 0.377885 31.2405 0.398773C31.5555 1.79407 31.8726 3.19564 32.1897 4.59721C32.1971 4.59825 32.2044 4.60034 32.2118 4.60139C32.7627 3.19877 33.3126 1.79616 33.8657 0.387284L33.8678 0.38624ZM45.3081 3.04525C45.1806 2.41444 45.0574 1.80661 44.9299 1.1758C44.3179 1.81078 43.7279 2.42384 43.1296 3.04525H45.3081ZM29.6983 3.05256C29.5919 2.45099 29.4876 1.86614 29.3791 1.2583C28.786 1.86196 28.2088 2.45099 27.6178 3.05256H29.6983Z" fill="white" fill-opacity="0.2"/>
<path d="M19.4453 4.81013C19.7803 3.96 20.1132 3.11509 20.4471 2.26809H21.353C21.1171 2.86653 20.8853 3.45765 20.6546 4.04146C20.6704 4.06757 20.6883 4.06548 20.7041 4.06548C21.2087 4.06026 21.7144 4.08115 22.219 4.04146C22.5055 4.01849 22.7836 3.96313 23.0501 3.84721C23.265 3.75321 23.4452 3.61744 23.5652 3.42005C23.8318 2.98141 24.0456 2.51875 24.113 2.007C24.1678 1.59655 23.9687 1.30621 23.6148 1.1788C23.4346 1.11405 23.2482 1.0848 23.0575 1.0848C22.3959 1.0848 21.7354 1.0848 21.0739 1.0848C21.0275 1.0848 20.9822 1.0848 20.9148 1.0848C21.0065 0.847728 21.0939 0.621096 21.1803 0.40073C21.2266 0.374621 21.2688 0.385065 21.3109 0.38402C22.3296 0.38402 23.3493 0.380887 24.368 0.38402C24.723 0.385065 25.0727 0.433106 25.4077 0.558433C25.7753 0.695248 26.0598 0.921879 26.1893 1.30308C26.2778 1.56313 26.2705 1.82945 26.2115 2.09368C26.0714 2.72449 25.7627 3.26548 25.3213 3.7365C24.9537 4.12919 24.5165 4.41953 24.0087 4.59708C23.7106 4.70152 23.3988 4.75269 23.0849 4.78924C22.7667 4.82684 22.4486 4.83206 22.1284 4.82998C21.2909 4.82266 20.4524 4.82789 19.6138 4.82684C19.5643 4.82684 19.5127 4.83624 19.4453 4.80804V4.81013Z" fill="white"/>
<path d="M19.4453 4.81013C19.7803 3.96 20.1132 3.11509 20.4471 2.26809H21.353C21.1171 2.86653 20.8853 3.45765 20.6546 4.04146C20.6704 4.06757 20.6883 4.06548 20.7041 4.06548C21.2087 4.06026 21.7144 4.08115 22.219 4.04146C22.5055 4.01849 22.7836 3.96313 23.0501 3.84721C23.265 3.75321 23.4452 3.61744 23.5652 3.42005C23.8318 2.98141 24.0456 2.51875 24.113 2.007C24.1678 1.59655 23.9687 1.30621 23.6148 1.1788C23.4346 1.11405 23.2482 1.0848 23.0575 1.0848C22.3959 1.0848 21.7354 1.0848 21.0739 1.0848C21.0275 1.0848 20.9822 1.0848 20.9148 1.0848C21.0065 0.847728 21.0939 0.621096 21.1803 0.40073C21.2266 0.374621 21.2688 0.385065 21.3109 0.38402C22.3296 0.38402 23.3493 0.380887 24.368 0.38402C24.723 0.385065 25.0727 0.433106 25.4077 0.558433C25.7753 0.695248 26.0598 0.921879 26.1893 1.30308C26.2778 1.56313 26.2705 1.82945 26.2115 2.09368C26.0714 2.72449 25.7627 3.26548 25.3213 3.7365C24.9537 4.12919 24.5165 4.41953 24.0087 4.59708C23.7106 4.70152 23.3988 4.75269 23.0849 4.78924C22.7667 4.82684 22.4486 4.83206 22.1284 4.82998C21.2909 4.82266 20.4524 4.82789 19.6138 4.82684C19.5643 4.82684 19.5127 4.83624 19.4453 4.80804V4.81013Z" fill="white" fill-opacity="0.2"/>
<path d="M53.6376 0.406761C53.4764 0.865247 53.2868 1.30702 53.1183 1.75402H52.2123C52.2998 1.5253 52.3851 1.30493 52.4683 1.0877C52.4356 1.04801 52.3998 1.06264 52.3693 1.06159C51.9943 1.06055 51.6192 1.05115 51.2453 1.06264C50.3151 1.09188 49.6388 1.52426 49.2269 2.35141C49.071 2.66368 48.9625 2.99162 48.9699 3.34776C48.9751 3.61407 49.0878 3.80937 49.3396 3.92112C49.5661 4.02243 49.8052 4.06316 50.0486 4.08718C50.5058 4.13313 50.9651 4.10598 51.4244 4.11225C51.6603 4.11538 51.8952 4.11225 52.1533 4.11225C52.0606 4.35454 51.9732 4.58535 51.89 4.80676C51.8341 4.83496 51.7867 4.82556 51.7414 4.82556C50.8702 4.82556 49.998 4.82974 49.1268 4.82452C48.677 4.82139 48.2261 4.80572 47.7879 4.6877C47.2981 4.55611 46.9757 4.25637 46.8788 3.75507C46.8103 3.39997 46.8525 3.04906 46.9747 2.70755C47.2096 2.0548 47.5909 1.50441 48.165 1.10023C48.638 0.76603 49.169 0.563419 49.7389 0.455847C50.0212 0.402583 50.3056 0.383784 50.5921 0.383784C51.5518 0.384829 52.5125 0.383784 53.4722 0.383784C53.5175 0.383784 53.5649 0.375429 53.6397 0.403628L53.6376 0.406761Z" fill="white"/>
<path d="M53.6376 0.406761C53.4764 0.865247 53.2868 1.30702 53.1183 1.75402H52.2123C52.2998 1.5253 52.3851 1.30493 52.4683 1.0877C52.4356 1.04801 52.3998 1.06264 52.3693 1.06159C51.9943 1.06055 51.6192 1.05115 51.2453 1.06264C50.3151 1.09188 49.6388 1.52426 49.2269 2.35141C49.071 2.66368 48.9625 2.99162 48.9699 3.34776C48.9751 3.61407 49.0878 3.80937 49.3396 3.92112C49.5661 4.02243 49.8052 4.06316 50.0486 4.08718C50.5058 4.13313 50.9651 4.10598 51.4244 4.11225C51.6603 4.11538 51.8952 4.11225 52.1533 4.11225C52.0606 4.35454 51.9732 4.58535 51.89 4.80676C51.8341 4.83496 51.7867 4.82556 51.7414 4.82556C50.8702 4.82556 49.998 4.82974 49.1268 4.82452C48.677 4.82139 48.2261 4.80572 47.7879 4.6877C47.2981 4.55611 46.9757 4.25637 46.8788 3.75507C46.8103 3.39997 46.8525 3.04906 46.9747 2.70755C47.2096 2.0548 47.5909 1.50441 48.165 1.10023C48.638 0.76603 49.169 0.563419 49.7389 0.455847C50.0212 0.402583 50.3056 0.383784 50.5921 0.383784C51.5518 0.384829 52.5125 0.383784 53.4722 0.383784C53.5175 0.383784 53.5649 0.375429 53.6397 0.403628L53.6376 0.406761Z" fill="white" fill-opacity="0.2"/>
<path d="M21.9082 30.9515C22.004 30.9765 22.0809 30.9932 22.1568 31.0162C22.3106 31.0632 22.456 31.1269 22.575 31.2387C22.8352 31.482 22.8247 31.8831 22.5487 32.1097C22.3401 32.281 22.0894 32.3478 21.8292 32.3875C21.609 32.422 21.3867 32.4355 21.1623 32.4345C20.544 32.4334 19.9246 32.4345 19.3062 32.4345H19.1714C19.145 32.3342 19.1355 29.8308 19.1587 29.5906C19.1935 29.5593 19.2367 29.5729 19.2767 29.5729C19.9035 29.5729 20.5313 29.5697 21.1581 29.5729C21.4236 29.5739 21.6869 29.6032 21.9419 29.6857C22.1031 29.7379 22.2547 29.8068 22.3759 29.93C22.5845 30.1431 22.5855 30.47 22.3801 30.6862C22.2547 30.8178 22.0946 30.8878 21.9082 30.9504V30.9515ZM19.6159 32.1849C19.7697 32.1849 19.9088 32.1859 20.0468 32.1849C20.5261 32.1786 21.0064 32.2026 21.4857 32.164C21.688 32.1473 21.8871 32.117 22.0672 32.0167C22.2137 31.9353 22.2969 31.8141 22.2958 31.6418C22.2948 31.4684 22.2063 31.3515 22.0578 31.2731C21.9872 31.2355 21.9124 31.2084 21.8344 31.1885C21.6301 31.1353 21.4204 31.1144 21.2097 31.1133C20.7209 31.1133 20.2332 31.1133 19.7444 31.1133C19.7033 31.1133 19.6612 31.1039 19.6148 31.128V32.1859L19.6159 32.1849ZM19.6159 30.8376C19.6475 30.8616 19.6738 30.8564 19.6981 30.8564C20.1605 30.8564 20.623 30.8585 21.0854 30.8554C21.2319 30.8543 21.3793 30.8397 21.5237 30.8073C21.668 30.775 21.8091 30.7332 21.925 30.6361C22.1167 30.4773 22.1189 30.211 21.9324 30.047C21.8681 29.9906 21.7923 29.9562 21.7133 29.9269C21.5342 29.8611 21.3477 29.8361 21.1571 29.8298C20.682 29.8131 20.2069 29.8256 19.7318 29.8225C19.6949 29.8225 19.6559 29.8141 19.6159 29.8444V30.8376Z" fill="white"/>
<path d="M21.9082 30.9515C22.004 30.9765 22.0809 30.9932 22.1568 31.0162C22.3106 31.0632 22.456 31.1269 22.575 31.2387C22.8352 31.482 22.8247 31.8831 22.5487 32.1097C22.3401 32.281 22.0894 32.3478 21.8292 32.3875C21.609 32.422 21.3867 32.4355 21.1623 32.4345C20.544 32.4334 19.9246 32.4345 19.3062 32.4345H19.1714C19.145 32.3342 19.1355 29.8308 19.1587 29.5906C19.1935 29.5593 19.2367 29.5729 19.2767 29.5729C19.9035 29.5729 20.5313 29.5697 21.1581 29.5729C21.4236 29.5739 21.6869 29.6032 21.9419 29.6857C22.1031 29.7379 22.2547 29.8068 22.3759 29.93C22.5845 30.1431 22.5855 30.47 22.3801 30.6862C22.2547 30.8178 22.0946 30.8878 21.9082 30.9504V30.9515ZM19.6159 32.1849C19.7697 32.1849 19.9088 32.1859 20.0468 32.1849C20.5261 32.1786 21.0064 32.2026 21.4857 32.164C21.688 32.1473 21.8871 32.117 22.0672 32.0167C22.2137 31.9353 22.2969 31.8141 22.2958 31.6418C22.2948 31.4684 22.2063 31.3515 22.0578 31.2731C21.9872 31.2355 21.9124 31.2084 21.8344 31.1885C21.6301 31.1353 21.4204 31.1144 21.2097 31.1133C20.7209 31.1133 20.2332 31.1133 19.7444 31.1133C19.7033 31.1133 19.6612 31.1039 19.6148 31.128V32.1859L19.6159 32.1849ZM19.6159 30.8376C19.6475 30.8616 19.6738 30.8564 19.6981 30.8564C20.1605 30.8564 20.623 30.8585 21.0854 30.8554C21.2319 30.8543 21.3793 30.8397 21.5237 30.8073C21.668 30.775 21.8091 30.7332 21.925 30.6361C22.1167 30.4773 22.1189 30.211 21.9324 30.047C21.8681 29.9906 21.7923 29.9562 21.7133 29.9269C21.5342 29.8611 21.3477 29.8361 21.1571 29.8298C20.682 29.8131 20.2069 29.8256 19.7318 29.8225C19.6949 29.8225 19.6559 29.8141 19.6159 29.8444V30.8376Z" fill="white" fill-opacity="0.2"/>
<path d="M37.2514 32.4353H36.7668C36.5962 32.1847 36.4255 31.9319 36.2559 31.6834C36.2117 31.6625 36.1695 31.6708 36.1274 31.6708C35.411 31.6708 34.6958 31.6719 33.9794 31.6687C33.8899 31.6687 33.8341 31.6928 33.7845 31.77C33.656 31.9706 33.517 32.1648 33.3874 32.3643C33.3505 32.4207 33.3105 32.4437 33.2441 32.4405C33.123 32.4353 33.0029 32.4395 32.8702 32.4395C32.8881 32.3768 32.9218 32.3392 32.9492 32.2996C33.5444 31.4348 34.1417 30.5711 34.7337 29.7043C34.8011 29.6061 34.8706 29.5591 34.9907 29.5747C35.0855 29.5873 35.194 29.5476 35.2773 29.5904C35.3605 29.6332 35.3963 29.7366 35.4511 29.816C36.0189 30.639 36.5856 31.462 37.1534 32.2849C37.184 32.3288 37.2124 32.3737 37.2535 32.4364L37.2514 32.4353ZM36.0768 31.416C35.7292 30.9011 35.3963 30.4061 35.0518 29.8954C34.7084 30.405 34.3724 30.9043 34.0268 31.416H36.0768Z" fill="white"/>
<path d="M37.2514 32.4353H36.7668C36.5962 32.1847 36.4255 31.9319 36.2559 31.6834C36.2117 31.6625 36.1695 31.6708 36.1274 31.6708C35.411 31.6708 34.6958 31.6719 33.9794 31.6687C33.8899 31.6687 33.8341 31.6928 33.7845 31.77C33.656 31.9706 33.517 32.1648 33.3874 32.3643C33.3505 32.4207 33.3105 32.4437 33.2441 32.4405C33.123 32.4353 33.0029 32.4395 32.8702 32.4395C32.8881 32.3768 32.9218 32.3392 32.9492 32.2996C33.5444 31.4348 34.1417 30.5711 34.7337 29.7043C34.8011 29.6061 34.8706 29.5591 34.9907 29.5747C35.0855 29.5873 35.194 29.5476 35.2773 29.5904C35.3605 29.6332 35.3963 29.7366 35.4511 29.816C36.0189 30.639 36.5856 31.462 37.1534 32.2849C37.184 32.3288 37.2124 32.3737 37.2535 32.4364L37.2514 32.4353ZM36.0768 31.416C35.7292 30.9011 35.3963 30.4061 35.0518 29.8954C34.7084 30.405 34.3724 30.9043 34.0268 31.416H36.0768Z" fill="white" fill-opacity="0.2"/>
<path d="M45.5093 32.4318H45.0373C44.9973 32.3744 44.952 32.3096 44.9077 32.2449C44.795 32.0788 44.6834 31.9117 44.5717 31.7446C44.5433 31.7018 44.5159 31.6684 44.4537 31.6684C43.6837 31.6715 42.9125 31.6715 42.1425 31.6736C42.1383 31.6736 42.1341 31.6757 42.1214 31.6799C41.9729 31.8992 41.818 32.1217 41.6705 32.3493C41.6263 32.4172 41.5778 32.4444 41.4967 32.4402C41.384 32.4329 41.2692 32.4381 41.1575 32.4381C41.1375 32.3942 41.1712 32.3734 41.1881 32.3483C41.8043 31.4522 42.4216 30.5572 43.0358 29.66C43.0779 29.5974 43.1253 29.5692 43.2012 29.5744C43.2855 29.5796 43.3697 29.5796 43.454 29.5744C43.5299 29.5692 43.5752 29.5995 43.6183 29.6621C44.0271 30.2595 44.4379 30.8548 44.8488 31.4501C45.0457 31.7363 45.2427 32.0214 45.4397 32.3076C45.465 32.3441 45.4956 32.3786 45.5093 32.4318ZM44.3494 31.4146C44.0018 30.8997 43.6668 30.4036 43.3244 29.895C42.9789 30.4078 42.6439 30.9039 42.3005 31.4146H44.3505H44.3494Z" fill="white"/>
<path d="M45.5093 32.4318H45.0373C44.9973 32.3744 44.952 32.3096 44.9077 32.2449C44.795 32.0788 44.6834 31.9117 44.5717 31.7446C44.5433 31.7018 44.5159 31.6684 44.4537 31.6684C43.6837 31.6715 42.9125 31.6715 42.1425 31.6736C42.1383 31.6736 42.1341 31.6757 42.1214 31.6799C41.9729 31.8992 41.818 32.1217 41.6705 32.3493C41.6263 32.4172 41.5778 32.4444 41.4967 32.4402C41.384 32.4329 41.2692 32.4381 41.1575 32.4381C41.1375 32.3942 41.1712 32.3734 41.1881 32.3483C41.8043 31.4522 42.4216 30.5572 43.0358 29.66C43.0779 29.5974 43.1253 29.5692 43.2012 29.5744C43.2855 29.5796 43.3697 29.5796 43.454 29.5744C43.5299 29.5692 43.5752 29.5995 43.6183 29.6621C44.0271 30.2595 44.4379 30.8548 44.8488 31.4501C45.0457 31.7363 45.2427 32.0214 45.4397 32.3076C45.465 32.3441 45.4956 32.3786 45.5093 32.4318ZM44.3494 31.4146C44.0018 30.8997 43.6668 30.4036 43.3244 29.895C42.9789 30.4078 42.6439 30.9039 42.3005 31.4146H44.3505H44.3494Z" fill="white" fill-opacity="0.2"/>
<path d="M32.3961 31.8429C32.493 31.9067 32.5878 31.9599 32.6763 32.033C32.6405 32.0863 32.5857 32.1103 32.5373 32.1385C32.2455 32.3077 31.9242 32.3902 31.5923 32.4309C31.1035 32.4915 30.6169 32.4717 30.1407 32.3369C29.7625 32.2304 29.4233 32.056 29.1494 31.7657C28.7302 31.3197 28.7354 30.6033 29.2337 30.1521C29.5455 29.8701 29.9163 29.7134 30.3208 29.6288C30.9761 29.491 31.625 29.5129 32.2613 29.7343C32.3529 29.7667 32.4393 29.8085 32.5236 29.8565C32.5741 29.8858 32.6226 29.9181 32.6837 29.9568C32.5952 30.0435 32.492 30.0894 32.4014 30.1615C32.178 30.0184 31.9389 29.9202 31.6787 29.8743C31.092 29.7709 30.521 29.8054 29.9795 30.0696C29.7889 30.1625 29.6224 30.2899 29.4907 30.4581C29.2158 30.8111 29.24 31.2873 29.5466 31.6153C29.7868 31.8732 30.0891 32.0226 30.4251 32.104C30.9044 32.22 31.3838 32.2168 31.861 32.0884C32.0527 32.0362 32.2297 31.9495 32.394 31.8419L32.3961 31.8429Z" fill="white"/>
<path d="M32.3961 31.8429C32.493 31.9067 32.5878 31.9599 32.6763 32.033C32.6405 32.0863 32.5857 32.1103 32.5373 32.1385C32.2455 32.3077 31.9242 32.3902 31.5923 32.4309C31.1035 32.4915 30.6169 32.4717 30.1407 32.3369C29.7625 32.2304 29.4233 32.056 29.1494 31.7657C28.7302 31.3197 28.7354 30.6033 29.2337 30.1521C29.5455 29.8701 29.9163 29.7134 30.3208 29.6288C30.9761 29.491 31.625 29.5129 32.2613 29.7343C32.3529 29.7667 32.4393 29.8085 32.5236 29.8565C32.5741 29.8858 32.6226 29.9181 32.6837 29.9568C32.5952 30.0435 32.492 30.0894 32.4014 30.1615C32.178 30.0184 31.9389 29.9202 31.6787 29.8743C31.092 29.7709 30.521 29.8054 29.9795 30.0696C29.7889 30.1625 29.6224 30.2899 29.4907 30.4581C29.2158 30.8111 29.24 31.2873 29.5466 31.6153C29.7868 31.8732 30.0891 32.0226 30.4251 32.104C30.9044 32.22 31.3838 32.2168 31.861 32.0884C32.0527 32.0362 32.2297 31.9495 32.394 31.8419L32.3961 31.8429Z" fill="white" fill-opacity="0.2"/>
<path d="M39.2024 32.0514C39.314 31.8854 39.4194 31.7308 39.5226 31.5752C39.9471 30.9392 40.3738 30.3042 40.7952 29.666C40.8426 29.594 40.8952 29.5637 40.9806 29.571C41.088 29.5804 41.1976 29.5606 41.305 29.5825C41.3029 29.6326 41.2713 29.6629 41.2492 29.6974C40.6645 30.5736 40.0778 31.4488 39.4973 32.3271C39.4415 32.4117 39.3804 32.4452 39.2824 32.4368C39.2076 32.4295 39.1307 32.4326 39.0549 32.4368C38.9948 32.4399 38.9538 32.4222 38.919 32.37C38.3122 31.4582 37.7044 30.5475 37.0976 29.6358C37.0892 29.6222 37.0829 29.6065 37.0681 29.5752C37.2303 29.5752 37.3789 29.5741 37.5285 29.5752C37.5727 29.5752 37.5874 29.617 37.6075 29.6483C38.0162 30.2645 38.4249 30.8817 38.8337 31.4979C38.9537 31.6786 39.0738 31.8593 39.2024 32.0525V32.0514Z" fill="white"/>
<path d="M39.2024 32.0514C39.314 31.8854 39.4194 31.7308 39.5226 31.5752C39.9471 30.9392 40.3738 30.3042 40.7952 29.666C40.8426 29.594 40.8952 29.5637 40.9806 29.571C41.088 29.5804 41.1976 29.5606 41.305 29.5825C41.3029 29.6326 41.2713 29.6629 41.2492 29.6974C40.6645 30.5736 40.0778 31.4488 39.4973 32.3271C39.4415 32.4117 39.3804 32.4452 39.2824 32.4368C39.2076 32.4295 39.1307 32.4326 39.0549 32.4368C38.9948 32.4399 38.9538 32.4222 38.919 32.37C38.3122 31.4582 37.7044 30.5475 37.0976 29.6358C37.0892 29.6222 37.0829 29.6065 37.0681 29.5752C37.2303 29.5752 37.3789 29.5741 37.5285 29.5752C37.5727 29.5752 37.5874 29.617 37.6075 29.6483C38.0162 30.2645 38.4249 30.8817 38.8337 31.4979C38.9537 31.6786 39.0738 31.8593 39.2024 32.0525V32.0514Z" fill="white" fill-opacity="0.2"/>
<path d="M23.0091 29.5729C23.184 29.5729 23.3293 29.5709 23.4758 29.574C23.5274 29.575 23.5505 29.6231 23.5811 29.6565C24.0014 30.1118 24.4207 30.5672 24.841 31.0236C24.8831 31.0695 24.9274 31.1145 24.9769 31.1677C25.1433 30.9881 25.3045 30.8147 25.4657 30.6393C25.7691 30.3103 26.0735 29.9813 26.3748 29.6492C26.4275 29.5907 26.4823 29.5646 26.5613 29.5709C26.6655 29.5792 26.7709 29.5635 26.8804 29.5813C26.8689 29.6481 26.8162 29.6805 26.7783 29.7212C26.2768 30.2675 25.7765 30.8126 25.2719 31.3557C25.2097 31.4225 25.1865 31.4894 25.1886 31.5782C25.1928 31.857 25.1907 32.1369 25.1907 32.4304C25.0401 32.4387 24.8958 32.4377 24.7462 32.4304C24.7293 32.3688 24.7367 32.3103 24.7367 32.2528C24.7357 32.0189 24.7336 31.786 24.7378 31.5521C24.7388 31.48 24.7178 31.4278 24.6693 31.3745C24.1542 30.8189 23.6422 30.2601 23.1292 29.7035C23.0965 29.668 23.0639 29.6314 23.0112 29.574L23.0091 29.5729Z" fill="white"/>
<path d="M23.0091 29.5729C23.184 29.5729 23.3293 29.5709 23.4758 29.574C23.5274 29.575 23.5505 29.6231 23.5811 29.6565C24.0014 30.1118 24.4207 30.5672 24.841 31.0236C24.8831 31.0695 24.9274 31.1145 24.9769 31.1677C25.1433 30.9881 25.3045 30.8147 25.4657 30.6393C25.7691 30.3103 26.0735 29.9813 26.3748 29.6492C26.4275 29.5907 26.4823 29.5646 26.5613 29.5709C26.6655 29.5792 26.7709 29.5635 26.8804 29.5813C26.8689 29.6481 26.8162 29.6805 26.7783 29.7212C26.2768 30.2675 25.7765 30.8126 25.2719 31.3557C25.2097 31.4225 25.1865 31.4894 25.1886 31.5782C25.1928 31.857 25.1907 32.1369 25.1907 32.4304C25.0401 32.4387 24.8958 32.4377 24.7462 32.4304C24.7293 32.3688 24.7367 32.3103 24.7367 32.2528C24.7357 32.0189 24.7336 31.786 24.7378 31.5521C24.7388 31.48 24.7178 31.4278 24.6693 31.3745C24.1542 30.8189 23.6422 30.2601 23.1292 29.7035C23.0965 29.668 23.0639 29.6314 23.0112 29.574L23.0091 29.5729Z" fill="white" fill-opacity="0.2"/>
<path d="M50.3192 29.5817C50.3255 29.7498 50.3213 29.919 50.3223 30.0882C50.3223 30.2595 50.3223 30.4307 50.3223 30.601V32.1665H52.7294C52.7389 32.2626 52.7368 32.343 52.7305 32.4297H49.8662V29.5817H50.3192Z" fill="white"/>
<path d="M50.3192 29.5817C50.3255 29.7498 50.3213 29.919 50.3223 30.0882C50.3223 30.2595 50.3223 30.4307 50.3223 30.601V32.1665H52.7294C52.7389 32.2626 52.7368 32.343 52.7305 32.4297H49.8662V29.5817H50.3192Z" fill="white" fill-opacity="0.2"/>
<path d="M46.6891 32.1728H49.0941C49.1162 32.2615 49.111 32.3399 49.0994 32.4276H46.2446V29.5837C46.3921 29.567 46.5332 29.5764 46.6891 29.5764V32.1728Z" fill="white"/>
<path d="M46.6891 32.1728H49.0941C49.1162 32.2615 49.111 32.3399 49.0994 32.4276H46.2446V29.5837C46.3921 29.567 46.5332 29.5764 46.6891 29.5764V32.1728Z" fill="white" fill-opacity="0.2"/>
<path d="M53.9388 32.4271C53.7955 32.4271 53.6544 32.4271 53.5132 32.4271C53.4848 32.3414 53.4774 29.7398 53.5058 29.579C53.646 29.5633 53.7871 29.5727 53.9388 29.5727V32.4271Z" fill="white"/>
<path d="M53.9388 32.4271C53.7955 32.4271 53.6544 32.4271 53.5132 32.4271C53.4848 32.3414 53.4774 29.7398 53.5058 29.579C53.646 29.5633 53.7871 29.5727 53.9388 29.5727V32.4271Z" fill="white" fill-opacity="0.2"/>
<path d="M0 25.5564V8.54337C0.0431907 8.51308 0.0905952 8.52666 0.135893 8.52666C0.839586 8.52666 1.54223 8.5277 2.24592 8.52561C3.0834 8.52248 3.92193 8.52039 4.75941 8.50786C5.25663 8.50055 5.7528 8.49637 6.25002 8.50368C7.03272 8.51412 7.81647 8.51099 8.59812 8.55277C9.21964 8.58619 9.84222 8.62587 10.4543 8.74702C11.0326 8.8619 11.6015 9.01334 12.145 9.23893C12.8487 9.53136 13.4397 9.98044 13.9106 10.5778C14.1265 10.8525 14.2319 11.1815 14.3435 11.5032C14.5521 12.1058 14.5943 12.724 14.5121 13.3549C14.4678 13.6953 14.411 14.0306 14.2687 14.347C13.9643 15.0207 13.4492 15.475 12.7697 15.758C12.3294 15.9408 11.8669 16.0473 11.4055 16.159C10.9178 16.2771 10.4195 16.3282 9.92228 16.3846C9.39135 16.4452 8.85937 16.4985 8.32844 16.5517C8.02716 16.582 7.72482 16.606 7.42354 16.6332C7.39404 16.6353 7.3656 16.6395 7.33611 16.6478C7.45304 16.6718 7.57102 16.6603 7.68795 16.6635C8.29789 16.6833 8.90783 16.6938 9.51777 16.7167C10.1741 16.7418 10.8293 16.769 11.4824 16.8389C11.8206 16.8744 12.1366 16.9914 12.4495 17.1126C12.9815 17.3183 13.4766 17.5898 13.918 17.9533C14.5469 18.4703 14.925 19.1397 15.1315 19.9136C15.2663 20.416 15.3359 20.9288 15.3506 21.4457C15.3696 22.0953 15.2611 22.7167 14.8534 23.2567C14.5058 23.7173 14.0939 24.1026 13.5756 24.3711C12.9046 24.7188 12.1945 24.959 11.4645 25.1502C11.0294 25.264 10.5902 25.3622 10.1425 25.4123C9.72845 25.4583 9.31129 25.4687 8.89519 25.4823C8.04507 25.5094 7.19495 25.5282 6.34483 25.5324C5.86551 25.5345 5.38515 25.5502 4.90584 25.5512C3.32253 25.5554 1.73816 25.5543 0.154855 25.5564C0.105343 25.5564 0.0558319 25.5564 0.00105343 25.5564H0ZM6.03512 16.7115C6.11518 16.6603 6.17838 16.6426 6.24475 16.6426C6.35431 16.6426 6.46281 16.6259 6.57131 16.6133C7.23182 16.534 7.8881 16.4358 8.53596 16.2844C9.12273 16.1465 9.6958 15.969 10.2278 15.6786C10.8588 15.335 11.3455 14.8556 11.6446 14.1998C11.9828 13.4583 12.1271 12.6844 12.0439 11.8729C11.9986 11.428 11.8827 11.0071 11.6215 10.6311C11.2464 10.0901 10.7555 9.67966 10.1846 9.35799C9.71897 9.09585 9.22702 8.91308 8.68555 8.87339C7.97554 8.82222 7.26553 8.7982 6.55446 8.7982C5.86867 8.7982 5.18184 8.78566 4.49605 8.77313C3.82712 8.76164 3.15714 8.75224 2.48821 8.74389C2.44396 8.74389 2.39551 8.72927 2.35548 8.76269V25.2838C2.40709 25.3089 2.4545 25.2995 2.49874 25.2985C3.20138 25.2859 3.90402 25.2671 4.60666 25.2588C5.39779 25.2494 6.18892 25.241 6.98005 25.2097C7.90075 25.1731 8.82145 25.1293 9.73899 25.053C10.1488 25.0186 10.5301 24.9079 10.882 24.6948C11.2686 24.4598 11.6246 24.1893 11.9396 23.8666C12.1366 23.665 12.3199 23.452 12.4379 23.194C12.7065 22.606 12.8582 21.9899 12.8677 21.3434C12.8793 20.6071 12.7097 19.9126 12.3652 19.2609C12.1545 18.863 11.8985 18.4943 11.5467 18.206C10.8219 17.6128 10.0002 17.2191 9.07006 17.0645C8.44748 16.9611 7.8249 16.864 7.20021 16.7731C6.89261 16.7282 6.58501 16.6771 6.27108 16.7115C6.20051 16.7199 6.12887 16.7126 6.03406 16.7126L6.03512 16.7115Z" fill="white"/>
<path d="M0 25.5564V8.54337C0.0431907 8.51308 0.0905952 8.52666 0.135893 8.52666C0.839586 8.52666 1.54223 8.5277 2.24592 8.52561C3.0834 8.52248 3.92193 8.52039 4.75941 8.50786C5.25663 8.50055 5.7528 8.49637 6.25002 8.50368C7.03272 8.51412 7.81647 8.51099 8.59812 8.55277C9.21964 8.58619 9.84222 8.62587 10.4543 8.74702C11.0326 8.8619 11.6015 9.01334 12.145 9.23893C12.8487 9.53136 13.4397 9.98044 13.9106 10.5778C14.1265 10.8525 14.2319 11.1815 14.3435 11.5032C14.5521 12.1058 14.5943 12.724 14.5121 13.3549C14.4678 13.6953 14.411 14.0306 14.2687 14.347C13.9643 15.0207 13.4492 15.475 12.7697 15.758C12.3294 15.9408 11.8669 16.0473 11.4055 16.159C10.9178 16.2771 10.4195 16.3282 9.92228 16.3846C9.39135 16.4452 8.85937 16.4985 8.32844 16.5517C8.02716 16.582 7.72482 16.606 7.42354 16.6332C7.39404 16.6353 7.3656 16.6395 7.33611 16.6478C7.45304 16.6718 7.57102 16.6603 7.68795 16.6635C8.29789 16.6833 8.90783 16.6938 9.51777 16.7167C10.1741 16.7418 10.8293 16.769 11.4824 16.8389C11.8206 16.8744 12.1366 16.9914 12.4495 17.1126C12.9815 17.3183 13.4766 17.5898 13.918 17.9533C14.5469 18.4703 14.925 19.1397 15.1315 19.9136C15.2663 20.416 15.3359 20.9288 15.3506 21.4457C15.3696 22.0953 15.2611 22.7167 14.8534 23.2567C14.5058 23.7173 14.0939 24.1026 13.5756 24.3711C12.9046 24.7188 12.1945 24.959 11.4645 25.1502C11.0294 25.264 10.5902 25.3622 10.1425 25.4123C9.72845 25.4583 9.31129 25.4687 8.89519 25.4823C8.04507 25.5094 7.19495 25.5282 6.34483 25.5324C5.86551 25.5345 5.38515 25.5502 4.90584 25.5512C3.32253 25.5554 1.73816 25.5543 0.154855 25.5564C0.105343 25.5564 0.0558319 25.5564 0.00105343 25.5564H0ZM6.03512 16.7115C6.11518 16.6603 6.17838 16.6426 6.24475 16.6426C6.35431 16.6426 6.46281 16.6259 6.57131 16.6133C7.23182 16.534 7.8881 16.4358 8.53596 16.2844C9.12273 16.1465 9.6958 15.969 10.2278 15.6786C10.8588 15.335 11.3455 14.8556 11.6446 14.1998C11.9828 13.4583 12.1271 12.6844 12.0439 11.8729C11.9986 11.428 11.8827 11.0071 11.6215 10.6311C11.2464 10.0901 10.7555 9.67966 10.1846 9.35799C9.71897 9.09585 9.22702 8.91308 8.68555 8.87339C7.97554 8.82222 7.26553 8.7982 6.55446 8.7982C5.86867 8.7982 5.18184 8.78566 4.49605 8.77313C3.82712 8.76164 3.15714 8.75224 2.48821 8.74389C2.44396 8.74389 2.39551 8.72927 2.35548 8.76269V25.2838C2.40709 25.3089 2.4545 25.2995 2.49874 25.2985C3.20138 25.2859 3.90402 25.2671 4.60666 25.2588C5.39779 25.2494 6.18892 25.241 6.98005 25.2097C7.90075 25.1731 8.82145 25.1293 9.73899 25.053C10.1488 25.0186 10.5301 24.9079 10.882 24.6948C11.2686 24.4598 11.6246 24.1893 11.9396 23.8666C12.1366 23.665 12.3199 23.452 12.4379 23.194C12.7065 22.606 12.8582 21.9899 12.8677 21.3434C12.8793 20.6071 12.7097 19.9126 12.3652 19.2609C12.1545 18.863 11.8985 18.4943 11.5467 18.206C10.8219 17.6128 10.0002 17.2191 9.07006 17.0645C8.44748 16.9611 7.8249 16.864 7.20021 16.7731C6.89261 16.7282 6.58501 16.6771 6.27108 16.7115C6.20051 16.7199 6.12887 16.7126 6.03406 16.7126L6.03512 16.7115Z" fill="white" fill-opacity="0.2"/>
<path d="M30.7666 8.29697C33.7425 14.0985 36.7174 19.897 39.6913 25.6944C39.6418 25.7257 39.5986 25.7153 39.5575 25.7153C38.6768 25.7153 37.7972 25.7142 36.9165 25.7184C36.8154 25.7184 36.7701 25.6829 36.7269 25.5972C36.1644 24.4693 35.5976 23.3424 35.033 22.2155C34.4504 21.0552 33.8679 19.8949 33.2854 18.7335C32.727 17.6213 32.1698 16.51 31.6114 15.3978C30.9962 14.1696 30.381 12.9414 29.7648 11.7142C29.7427 11.6703 29.7279 11.6212 29.6763 11.5722C28.2436 14.3659 26.8204 17.1565 25.4225 19.9586C25.4562 19.9878 25.4826 19.9659 25.5079 19.9565C26.1094 19.7372 26.7256 19.5701 27.3608 19.4803C28.5733 19.3079 29.7532 19.4009 30.8783 19.9168C31.3597 20.1372 31.8 20.4181 32.1729 20.7951C32.2372 20.8599 32.2941 20.9309 32.3731 21.0197C32.2403 21.0197 32.1329 21.0197 32.0254 21.0197C31.9917 21.0197 31.9728 20.9978 31.9517 20.9779C31.2701 20.3649 30.4632 19.9993 29.5688 19.8176C28.4385 19.5878 27.3345 19.7215 26.2484 20.0766C25.905 20.1894 25.5711 20.3273 25.2424 20.4766C25.1687 20.51 25.1234 20.557 25.0875 20.628C24.2975 22.203 23.5053 23.7769 22.7131 25.3508C22.6889 25.3988 22.6636 25.4468 22.6383 25.498H22.2475C23.0333 23.9053 23.815 22.3231 24.6051 20.7241C24.4112 20.769 24.2374 20.816 24.0615 20.8505C23.5074 20.956 22.9501 20.9748 22.3897 20.9267C21.2615 20.8286 20.2123 20.4808 19.2252 19.9398C19.1809 19.9158 19.1377 19.8886 19.0946 19.8625C19.0809 19.8542 19.0672 19.8437 19.0472 19.828C19.045 19.7048 19.0398 19.5774 19.0503 19.451C19.0967 19.4448 19.1188 19.475 19.1462 19.4917C20.0816 20.0651 21.0898 20.4432 22.1811 20.5873C23.0502 20.7022 23.9024 20.628 24.7231 20.2959C24.8063 20.2625 24.86 20.2155 24.9 20.134C25.3783 19.1596 25.8597 18.1873 26.3401 17.2139C27.107 15.6609 27.8739 14.1069 28.6408 12.5539C29.1569 11.5095 29.6731 10.4662 30.1893 9.42177C30.361 9.07399 30.5317 8.72516 30.7044 8.37738C30.7171 8.35232 30.7224 8.32099 30.7676 8.29801L30.7666 8.29697Z" fill="white"/>
<path d="M30.7666 8.29697C33.7425 14.0985 36.7174 19.897 39.6913 25.6944C39.6418 25.7257 39.5986 25.7153 39.5575 25.7153C38.6768 25.7153 37.7972 25.7142 36.9165 25.7184C36.8154 25.7184 36.7701 25.6829 36.7269 25.5972C36.1644 24.4693 35.5976 23.3424 35.033 22.2155C34.4504 21.0552 33.8679 19.8949 33.2854 18.7335C32.727 17.6213 32.1698 16.51 31.6114 15.3978C30.9962 14.1696 30.381 12.9414 29.7648 11.7142C29.7427 11.6703 29.7279 11.6212 29.6763 11.5722C28.2436 14.3659 26.8204 17.1565 25.4225 19.9586C25.4562 19.9878 25.4826 19.9659 25.5079 19.9565C26.1094 19.7372 26.7256 19.5701 27.3608 19.4803C28.5733 19.3079 29.7532 19.4009 30.8783 19.9168C31.3597 20.1372 31.8 20.4181 32.1729 20.7951C32.2372 20.8599 32.2941 20.9309 32.3731 21.0197C32.2403 21.0197 32.1329 21.0197 32.0254 21.0197C31.9917 21.0197 31.9728 20.9978 31.9517 20.9779C31.2701 20.3649 30.4632 19.9993 29.5688 19.8176C28.4385 19.5878 27.3345 19.7215 26.2484 20.0766C25.905 20.1894 25.5711 20.3273 25.2424 20.4766C25.1687 20.51 25.1234 20.557 25.0875 20.628C24.2975 22.203 23.5053 23.7769 22.7131 25.3508C22.6889 25.3988 22.6636 25.4468 22.6383 25.498H22.2475C23.0333 23.9053 23.815 22.3231 24.6051 20.7241C24.4112 20.769 24.2374 20.816 24.0615 20.8505C23.5074 20.956 22.9501 20.9748 22.3897 20.9267C21.2615 20.8286 20.2123 20.4808 19.2252 19.9398C19.1809 19.9158 19.1377 19.8886 19.0946 19.8625C19.0809 19.8542 19.0672 19.8437 19.0472 19.828C19.045 19.7048 19.0398 19.5774 19.0503 19.451C19.0967 19.4448 19.1188 19.475 19.1462 19.4917C20.0816 20.0651 21.0898 20.4432 22.1811 20.5873C23.0502 20.7022 23.9024 20.628 24.7231 20.2959C24.8063 20.2625 24.86 20.2155 24.9 20.134C25.3783 19.1596 25.8597 18.1873 26.3401 17.2139C27.107 15.6609 27.8739 14.1069 28.6408 12.5539C29.1569 11.5095 29.6731 10.4662 30.1893 9.42177C30.361 9.07399 30.5317 8.72516 30.7044 8.37738C30.7171 8.35232 30.7224 8.32099 30.7676 8.29801L30.7666 8.29697Z" fill="white" fill-opacity="0.2"/>
<path d="M42.7135 8.57516C42.7599 8.55428 42.7978 8.56159 42.8357 8.56159C43.6996 8.56159 44.5623 8.56263 45.4261 8.55845C45.522 8.55845 45.5778 8.58978 45.6326 8.66603C47.4266 11.1642 49.2227 13.6603 51.0178 16.1564C51.5845 16.9449 52.1513 17.7323 52.718 18.5209C52.7422 18.5543 52.7601 18.5929 52.8002 18.6169C52.8539 18.5679 52.8855 18.5042 52.9245 18.4457C54.3013 16.3976 55.676 14.3496 57.0518 12.3005C57.8535 11.1057 58.6551 9.91094 59.4589 8.7172C59.5853 8.52921 59.519 8.56368 59.7602 8.56159C59.8002 8.56159 59.8434 8.54905 59.8898 8.58456C59.8055 8.71302 59.7223 8.84148 59.6369 8.96994C58.4297 10.7934 57.2225 12.6169 56.0142 14.4404C54.9797 16.0028 53.9474 17.5652 52.9108 19.1256C52.8655 19.1945 52.8571 19.2613 52.8571 19.3376C52.8571 21.3867 52.8571 23.4368 52.8571 25.4859C52.8571 25.5391 52.8665 25.5935 52.8434 25.6561H50.4057C50.3783 25.5997 50.3899 25.5444 50.3899 25.4911C50.3899 23.4462 50.3889 21.4002 50.3899 19.3553C50.3899 19.2592 50.3667 19.1809 50.3088 19.1026C48.0502 15.9809 45.7927 12.8572 43.5352 9.73339C43.2824 9.38456 43.0296 9.03469 42.7778 8.68587C42.7536 8.65245 42.723 8.62216 42.7104 8.57516H42.7135Z" fill="white"/>
<path d="M42.7135 8.57516C42.7599 8.55428 42.7978 8.56159 42.8357 8.56159C43.6996 8.56159 44.5623 8.56263 45.4261 8.55845C45.522 8.55845 45.5778 8.58978 45.6326 8.66603C47.4266 11.1642 49.2227 13.6603 51.0178 16.1564C51.5845 16.9449 52.1513 17.7323 52.718 18.5209C52.7422 18.5543 52.7601 18.5929 52.8002 18.6169C52.8539 18.5679 52.8855 18.5042 52.9245 18.4457C54.3013 16.3976 55.676 14.3496 57.0518 12.3005C57.8535 11.1057 58.6551 9.91094 59.4589 8.7172C59.5853 8.52921 59.519 8.56368 59.7602 8.56159C59.8002 8.56159 59.8434 8.54905 59.8898 8.58456C59.8055 8.71302 59.7223 8.84148 59.6369 8.96994C58.4297 10.7934 57.2225 12.6169 56.0142 14.4404C54.9797 16.0028 53.9474 17.5652 52.9108 19.1256C52.8655 19.1945 52.8571 19.2613 52.8571 19.3376C52.8571 21.3867 52.8571 23.4368 52.8571 25.4859C52.8571 25.5391 52.8665 25.5935 52.8434 25.6561H50.4057C50.3783 25.5997 50.3899 25.5444 50.3899 25.4911C50.3899 23.4462 50.3889 21.4002 50.3899 19.3553C50.3899 19.2592 50.3667 19.1809 50.3088 19.1026C48.0502 15.9809 45.7927 12.8572 43.5352 9.73339C43.2824 9.38456 43.0296 9.03469 42.7778 8.68587C42.7536 8.65245 42.723 8.62216 42.7104 8.57516H42.7135Z" fill="white" fill-opacity="0.2"/>
<path d="M73.083 23.5003C72.8765 23.9682 72.6806 24.4141 72.4836 24.859C72.373 25.1097 72.2571 25.3582 72.1517 25.611C72.117 25.6935 72.0675 25.7248 71.9832 25.7175C71.9537 25.7154 71.9242 25.7175 71.8947 25.7175C68.3078 25.7175 64.7208 25.7175 61.1339 25.7175H60.9527C60.9948 25.6622 61.0159 25.6277 61.0433 25.5995C61.5584 25.0783 62.0746 24.5582 62.5897 24.0381C63.3272 23.2945 64.0667 22.553 64.803 21.8084C65.3529 21.2528 65.907 20.7013 66.4453 20.1342C67.1111 19.4345 67.6799 18.6575 68.2172 17.8585C68.6796 17.1692 69.0978 16.4548 69.4276 15.6914C69.7352 14.9802 69.9111 14.2418 69.8763 13.4658C69.83 12.4454 69.5361 11.5097 68.8377 10.7337C68.3067 10.1436 67.6367 9.80105 66.8456 9.70914C65.671 9.57337 64.5702 9.82925 63.5241 10.3535C62.8942 10.6689 62.3264 11.0742 61.8092 11.5483C61.6111 11.73 61.4194 11.918 61.2013 12.1259C61.215 12.0747 61.2161 12.035 61.235 12.0089C61.6259 11.4585 62.0367 10.9238 62.497 10.4277C62.9163 9.97651 63.3703 9.56293 63.8802 9.21306C64.6913 8.65849 65.5804 8.33264 66.5728 8.30235C67.2923 8.28042 68.0044 8.32011 68.6986 8.52063C69.8289 8.84753 70.7886 9.43969 71.5144 10.3692C72.0095 11.0031 72.2982 11.7185 72.3572 12.5259C72.4172 13.3394 72.2265 14.0997 71.8916 14.8319C71.4839 15.7238 70.9203 16.5144 70.2377 17.2162C69.7647 17.7018 69.2622 18.1582 68.7671 18.623C68.1824 19.1713 67.5936 19.7144 67.0057 20.2595C66.4074 20.8152 65.8101 21.3708 65.2117 21.9264C64.6608 22.4381 64.1098 22.9488 63.5589 23.4606C63.561 23.4742 63.5642 23.4867 63.5663 23.5003H73.083Z" fill="white"/>
<path d="M73.083 23.5003C72.8765 23.9682 72.6806 24.4141 72.4836 24.859C72.373 25.1097 72.2571 25.3582 72.1517 25.611C72.117 25.6935 72.0675 25.7248 71.9832 25.7175C71.9537 25.7154 71.9242 25.7175 71.8947 25.7175C68.3078 25.7175 64.7208 25.7175 61.1339 25.7175H60.9527C60.9948 25.6622 61.0159 25.6277 61.0433 25.5995C61.5584 25.0783 62.0746 24.5582 62.5897 24.0381C63.3272 23.2945 64.0667 22.553 64.803 21.8084C65.3529 21.2528 65.907 20.7013 66.4453 20.1342C67.1111 19.4345 67.6799 18.6575 68.2172 17.8585C68.6796 17.1692 69.0978 16.4548 69.4276 15.6914C69.7352 14.9802 69.9111 14.2418 69.8763 13.4658C69.83 12.4454 69.5361 11.5097 68.8377 10.7337C68.3067 10.1436 67.6367 9.80105 66.8456 9.70914C65.671 9.57337 64.5702 9.82925 63.5241 10.3535C62.8942 10.6689 62.3264 11.0742 61.8092 11.5483C61.6111 11.73 61.4194 11.918 61.2013 12.1259C61.215 12.0747 61.2161 12.035 61.235 12.0089C61.6259 11.4585 62.0367 10.9238 62.497 10.4277C62.9163 9.97651 63.3703 9.56293 63.8802 9.21306C64.6913 8.65849 65.5804 8.33264 66.5728 8.30235C67.2923 8.28042 68.0044 8.32011 68.6986 8.52063C69.8289 8.84753 70.7886 9.43969 71.5144 10.3692C72.0095 11.0031 72.2982 11.7185 72.3572 12.5259C72.4172 13.3394 72.2265 14.0997 71.8916 14.8319C71.4839 15.7238 70.9203 16.5144 70.2377 17.2162C69.7647 17.7018 69.2622 18.1582 68.7671 18.623C68.1824 19.1713 67.5936 19.7144 67.0057 20.2595C66.4074 20.8152 65.8101 21.3708 65.2117 21.9264C64.6608 22.4381 64.1098 22.9488 63.5589 23.4606C63.561 23.4742 63.5642 23.4867 63.5663 23.5003H73.083Z" fill="white" fill-opacity="0.2"/>
</svg>
