<svg width="59" height="31" viewBox="0 0 59 31" fill="none" xmlns="http://www.w3.org/2000/svg">
<path d="M0.916016 24.3008V7.88183C0.957887 7.8526 1.00384 7.8657 1.04776 7.8657C1.72995 7.8657 2.41112 7.86671 3.09331 7.8647C3.9052 7.86167 4.71811 7.85966 5.53 7.84756C6.01202 7.84051 6.49303 7.83648 6.97506 7.84353C7.73384 7.85361 8.49365 7.85059 9.25141 7.8909C9.85394 7.92316 10.4575 7.96146 11.0508 8.07837C11.6115 8.18925 12.163 8.33539 12.6899 8.5531C13.3721 8.83532 13.945 9.26872 14.4015 9.84525C14.6109 10.1103 14.713 10.4278 14.8213 10.7383C15.0235 11.3198 15.0643 11.9165 14.9847 12.5253C14.9418 12.8539 14.8866 13.1774 14.7488 13.4828C14.4536 14.1329 13.9542 14.5714 13.2955 14.8445C12.8687 15.0209 12.4203 15.1237 11.973 15.2316C11.5002 15.3455 11.0171 15.3948 10.5351 15.4493C10.0204 15.5077 9.50468 15.5591 8.98997 15.6105C8.69789 15.6398 8.4048 15.6629 8.11272 15.6892C8.08413 15.6912 8.05655 15.6952 8.02796 15.7033C8.14132 15.7264 8.2557 15.7154 8.36905 15.7184C8.96035 15.7375 9.55165 15.7476 10.143 15.7698C10.7792 15.794 11.4144 15.8202 12.0476 15.8877C12.3754 15.922 12.6818 16.0349 12.9851 16.1518C13.5008 16.3503 13.9808 16.6124 14.4087 16.9632C15.0184 17.4621 15.385 18.1082 15.5852 18.855C15.7159 19.3398 15.7833 19.8347 15.7976 20.3336C15.816 20.9606 15.7108 21.5603 15.3156 22.0814C14.9785 22.5258 14.5792 22.8978 14.0768 23.1568C13.4263 23.4924 12.7379 23.7243 12.0302 23.9087C11.6084 24.0186 11.1826 24.1133 10.7486 24.1617C10.3472 24.206 9.94279 24.2161 9.5394 24.2292C8.71526 24.2554 7.89111 24.2736 7.06697 24.2776C6.6023 24.2796 6.13661 24.2947 5.67195 24.2957C4.13702 24.2998 2.60107 24.2988 1.06614 24.3008C1.01814 24.3008 0.970142 24.3008 0.917037 24.3008H0.916016ZM6.76672 15.7647C6.84434 15.7154 6.90561 15.6982 6.96995 15.6982C7.07616 15.6982 7.18135 15.6821 7.28654 15.67C7.92686 15.5934 8.56309 15.4987 9.19116 15.3525C9.75999 15.2195 10.3155 15.0481 10.8313 14.7679C11.443 14.4363 11.9148 13.9737 12.2048 13.3407C12.5327 12.6251 12.6726 11.8782 12.5919 11.0951C12.548 10.6657 12.4356 10.2595 12.1824 9.89666C11.8188 9.37456 11.3429 8.97844 10.7894 8.66801C10.338 8.41502 9.86109 8.23863 9.33617 8.20033C8.64785 8.15094 7.95954 8.12776 7.2702 8.12776C6.60537 8.12776 5.93951 8.11567 5.27468 8.10357C4.62619 8.09249 3.97668 8.08341 3.32819 8.07535C3.2853 8.07535 3.23832 8.06124 3.19952 8.09349V24.0377C3.24956 24.0619 3.29551 24.0528 3.33841 24.0518C4.01958 24.0397 4.70075 24.0216 5.38192 24.0135C6.14887 24.0045 6.91582 23.9964 7.68278 23.9662C8.57535 23.9309 9.46791 23.8886 10.3574 23.815C10.7547 23.7817 11.1244 23.6749 11.4655 23.4693C11.8403 23.2425 12.1854 22.9814 12.4908 22.67C12.6818 22.4755 12.8595 22.2698 12.9738 22.0209C13.2343 21.4534 13.3813 20.8588 13.3905 20.2349C13.4017 19.5243 13.2373 18.854 12.9034 18.2251C12.6991 17.8411 12.451 17.4853 12.1099 17.2071C11.4073 16.6346 10.6107 16.2546 9.70893 16.1054C9.10537 16.0056 8.50182 15.9119 7.89622 15.8242C7.59801 15.7809 7.29981 15.7315 6.99548 15.7647C6.92706 15.7728 6.85761 15.7658 6.7657 15.7658L6.76672 15.7647Z" fill="white"/>
<path d="M0.916016 24.3008V7.88183C0.957887 7.8526 1.00384 7.8657 1.04776 7.8657C1.72995 7.8657 2.41112 7.86671 3.09331 7.8647C3.9052 7.86167 4.71811 7.85966 5.53 7.84756C6.01202 7.84051 6.49303 7.83648 6.97506 7.84353C7.73384 7.85361 8.49365 7.85059 9.25141 7.8909C9.85394 7.92316 10.4575 7.96146 11.0508 8.07837C11.6115 8.18925 12.163 8.33539 12.6899 8.5531C13.3721 8.83532 13.945 9.26872 14.4015 9.84525C14.6109 10.1103 14.713 10.4278 14.8213 10.7383C15.0235 11.3198 15.0643 11.9165 14.9847 12.5253C14.9418 12.8539 14.8866 13.1774 14.7488 13.4828C14.4536 14.1329 13.9542 14.5714 13.2955 14.8445C12.8687 15.0209 12.4203 15.1237 11.973 15.2316C11.5002 15.3455 11.0171 15.3948 10.5351 15.4493C10.0204 15.5077 9.50468 15.5591 8.98997 15.6105C8.69789 15.6398 8.4048 15.6629 8.11272 15.6892C8.08413 15.6912 8.05655 15.6952 8.02796 15.7033C8.14132 15.7264 8.2557 15.7154 8.36905 15.7184C8.96035 15.7375 9.55165 15.7476 10.143 15.7698C10.7792 15.794 11.4144 15.8202 12.0476 15.8877C12.3754 15.922 12.6818 16.0349 12.9851 16.1518C13.5008 16.3503 13.9808 16.6124 14.4087 16.9632C15.0184 17.4621 15.385 18.1082 15.5852 18.855C15.7159 19.3398 15.7833 19.8347 15.7976 20.3336C15.816 20.9606 15.7108 21.5603 15.3156 22.0814C14.9785 22.5258 14.5792 22.8978 14.0768 23.1568C13.4263 23.4924 12.7379 23.7243 12.0302 23.9087C11.6084 24.0186 11.1826 24.1133 10.7486 24.1617C10.3472 24.206 9.94279 24.2161 9.5394 24.2292C8.71526 24.2554 7.89111 24.2736 7.06697 24.2776C6.6023 24.2796 6.13661 24.2947 5.67195 24.2957C4.13702 24.2998 2.60107 24.2988 1.06614 24.3008C1.01814 24.3008 0.970142 24.3008 0.917037 24.3008H0.916016ZM6.76672 15.7647C6.84434 15.7154 6.90561 15.6982 6.96995 15.6982C7.07616 15.6982 7.18135 15.6821 7.28654 15.67C7.92686 15.5934 8.56309 15.4987 9.19116 15.3525C9.75999 15.2195 10.3155 15.0481 10.8313 14.7679C11.443 14.4363 11.9148 13.9737 12.2048 13.3407C12.5327 12.6251 12.6726 11.8782 12.5919 11.0951C12.548 10.6657 12.4356 10.2595 12.1824 9.89666C11.8188 9.37456 11.3429 8.97844 10.7894 8.66801C10.338 8.41502 9.86109 8.23863 9.33617 8.20033C8.64785 8.15094 7.95954 8.12776 7.2702 8.12776C6.60537 8.12776 5.93951 8.11567 5.27468 8.10357C4.62619 8.09249 3.97668 8.08341 3.32819 8.07535C3.2853 8.07535 3.23832 8.06124 3.19952 8.09349V24.0377C3.24956 24.0619 3.29551 24.0528 3.33841 24.0518C4.01958 24.0397 4.70075 24.0216 5.38192 24.0135C6.14887 24.0045 6.91582 23.9964 7.68278 23.9662C8.57535 23.9309 9.46791 23.8886 10.3574 23.815C10.7547 23.7817 11.1244 23.6749 11.4655 23.4693C11.8403 23.2425 12.1854 22.9814 12.4908 22.67C12.6818 22.4755 12.8595 22.2698 12.9738 22.0209C13.2343 21.4534 13.3813 20.8588 13.3905 20.2349C13.4017 19.5243 13.2373 18.854 12.9034 18.2251C12.6991 17.8411 12.451 17.4853 12.1099 17.2071C11.4073 16.6346 10.6107 16.2546 9.70893 16.1054C9.10537 16.0056 8.50182 15.9119 7.89622 15.8242C7.59801 15.7809 7.29981 15.7315 6.99548 15.7647C6.92706 15.7728 6.85761 15.7658 6.7657 15.7658L6.76672 15.7647Z" fill="white" fill-opacity="0.2"/>
<path d="M30.7425 7.64062C33.6275 13.2396 36.5115 18.8356 39.3945 24.4305C39.3465 24.4607 39.3046 24.4507 39.2648 24.4507C38.411 24.4507 37.5583 24.4496 36.7045 24.4537C36.6065 24.4537 36.5626 24.4194 36.5207 24.3368C35.9753 23.2482 35.4259 22.1607 34.8785 21.0731C34.3138 19.9533 33.749 18.8335 33.1843 17.7127C32.643 16.6393 32.1028 15.5669 31.5615 14.4934C30.9651 13.3081 30.3687 12.1228 29.7713 10.9385C29.7498 10.8962 29.7355 10.8488 29.6855 10.8015C28.2966 13.4976 26.9169 16.1908 25.5617 18.895C25.5944 18.9232 25.6199 18.9021 25.6444 18.893C26.2276 18.6813 26.825 18.5201 27.4408 18.4334C28.6163 18.2671 29.76 18.3568 30.8507 18.8547C31.3174 19.0674 31.7443 19.3385 32.1058 19.7024C32.1681 19.7649 32.2233 19.8334 32.2999 19.9191C32.1712 19.9191 32.067 19.9191 31.9629 19.9191C31.9302 19.9191 31.9118 19.8979 31.8914 19.8787C31.2306 19.2871 30.4484 18.9343 29.5813 18.759C28.4855 18.5372 27.4153 18.6662 26.3624 19.0089C26.0294 19.1178 25.7057 19.2508 25.3871 19.3949C25.3156 19.4272 25.2717 19.4726 25.237 19.5411C24.471 21.061 23.7031 22.58 22.9351 24.0989C22.9116 24.1453 22.8871 24.1916 22.8626 24.241H22.4837C23.2455 22.7039 24.0033 21.1769 24.7692 19.6338C24.5813 19.6772 24.4128 19.7225 24.2423 19.7558C23.7051 19.8576 23.1649 19.8757 22.6216 19.8294C21.5278 19.7346 20.5106 19.399 19.5537 18.8769C19.5108 18.8537 19.469 18.8275 19.4271 18.8023C19.4138 18.7942 19.4005 18.7842 19.3811 18.769C19.3791 18.6501 19.374 18.5271 19.3842 18.4052C19.4291 18.3991 19.4506 18.4284 19.4771 18.4445C20.384 18.9978 21.3613 19.3627 22.4193 19.5018C23.2619 19.6127 24.0881 19.5411 24.8836 19.2206C24.9643 19.1883 25.0164 19.143 25.0552 19.0644C25.5188 18.124 25.9855 17.1856 26.4512 16.2462C27.1947 14.7474 27.9382 13.2477 28.6816 11.7489C29.182 10.741 29.6824 9.73407 30.1828 8.72615C30.3493 8.39052 30.5147 8.05387 30.6822 7.71824C30.6945 7.69405 30.6996 7.66381 30.7435 7.64163L30.7425 7.64062Z" fill="white"/>
<path d="M30.7425 7.64062C33.6275 13.2396 36.5115 18.8356 39.3945 24.4305C39.3465 24.4607 39.3046 24.4507 39.2648 24.4507C38.411 24.4507 37.5583 24.4496 36.7045 24.4537C36.6065 24.4537 36.5626 24.4194 36.5207 24.3368C35.9753 23.2482 35.4259 22.1607 34.8785 21.0731C34.3138 19.9533 33.749 18.8335 33.1843 17.7127C32.643 16.6393 32.1028 15.5669 31.5615 14.4934C30.9651 13.3081 30.3687 12.1228 29.7713 10.9385C29.7498 10.8962 29.7355 10.8488 29.6855 10.8015C28.2966 13.4976 26.9169 16.1908 25.5617 18.895C25.5944 18.9232 25.6199 18.9021 25.6444 18.893C26.2276 18.6813 26.825 18.5201 27.4408 18.4334C28.6163 18.2671 29.76 18.3568 30.8507 18.8547C31.3174 19.0674 31.7443 19.3385 32.1058 19.7024C32.1681 19.7649 32.2233 19.8334 32.2999 19.9191C32.1712 19.9191 32.067 19.9191 31.9629 19.9191C31.9302 19.9191 31.9118 19.8979 31.8914 19.8787C31.2306 19.2871 30.4484 18.9343 29.5813 18.759C28.4855 18.5372 27.4153 18.6662 26.3624 19.0089C26.0294 19.1178 25.7057 19.2508 25.3871 19.3949C25.3156 19.4272 25.2717 19.4726 25.237 19.5411C24.471 21.061 23.7031 22.58 22.9351 24.0989C22.9116 24.1453 22.8871 24.1916 22.8626 24.241H22.4837C23.2455 22.7039 24.0033 21.1769 24.7692 19.6338C24.5813 19.6772 24.4128 19.7225 24.2423 19.7558C23.7051 19.8576 23.1649 19.8757 22.6216 19.8294C21.5278 19.7346 20.5106 19.399 19.5537 18.8769C19.5108 18.8537 19.469 18.8275 19.4271 18.8023C19.4138 18.7942 19.4005 18.7842 19.3811 18.769C19.3791 18.6501 19.374 18.5271 19.3842 18.4052C19.4291 18.3991 19.4506 18.4284 19.4771 18.4445C20.384 18.9978 21.3613 19.3627 22.4193 19.5018C23.2619 19.6127 24.0881 19.5411 24.8836 19.2206C24.9643 19.1883 25.0164 19.143 25.0552 19.0644C25.5188 18.124 25.9855 17.1856 26.4512 16.2462C27.1947 14.7474 27.9382 13.2477 28.6816 11.7489C29.182 10.741 29.6824 9.73407 30.1828 8.72615C30.3493 8.39052 30.5147 8.05387 30.6822 7.71824C30.6945 7.69405 30.6996 7.66381 30.7435 7.64163L30.7425 7.64062Z" fill="white" fill-opacity="0.2"/>
<path d="M27.208 0.00707764H29.0013C29.1177 0.249986 29.2331 0.492893 29.3485 0.736809C29.4302 0.908155 29.5068 1.08152 29.5926 1.24984C29.6283 1.3214 29.6273 1.38288 29.5997 1.45545C29.4537 1.83947 29.3117 2.2255 29.1708 2.61053C29.1565 2.64983 29.1279 2.68814 29.1381 2.73551C29.1861 2.74357 29.2055 2.70729 29.23 2.6841C30.2216 1.79613 31.2572 0.958551 32.2774 0.103838C32.3632 0.0322755 32.4469 -0.000985696 32.5613 2.22207e-05C33.0515 0.00606972 33.5417 0.00304597 34.0309 0.00304597C34.0758 0.00304597 34.1197 0.00304597 34.1871 0.00304597C33.6561 1.35265 33.1291 2.69015 32.6022 4.02665C32.6798 4.00447 32.7216 3.95105 32.7686 3.90368C33.1802 3.49548 33.5897 3.08525 34.0023 2.67705C34.6906 1.99469 35.3799 1.31334 36.0693 0.630978C36.2592 0.442498 36.4482 0.253009 36.6371 0.063521C36.6718 0.0282439 36.7045 0.00103014 36.7617 0.00103014C37.3826 0.00304597 38.0025 0.00304597 38.6234 0.00304597C38.6387 0.00304597 38.6541 0.00808555 38.6775 0.0111093C38.9992 1.4363 39.3209 2.86049 39.6447 4.29375H38.6449C38.5693 3.92384 38.4927 3.55091 38.4171 3.18101C38.3722 3.16085 38.3303 3.16891 38.2905 3.16891C37.4326 3.16891 36.5758 3.16891 35.718 3.1669C35.6322 3.1669 35.576 3.19209 35.5178 3.25257C35.2104 3.5751 34.8969 3.8926 34.5885 4.21513C34.5272 4.27863 34.4649 4.30382 34.3761 4.30382C33.1598 4.3008 31.9424 4.30181 30.7261 4.30181H30.5801C30.7823 3.78676 30.9753 3.28684 31.1745 2.78792C31.3746 2.289 31.5554 1.78202 31.779 1.29419C30.8293 2.14789 29.8315 2.94112 28.8634 3.76761C28.7878 3.83212 28.7143 3.86034 28.606 3.83111C28.4324 3.41182 28.2506 2.98648 28.0791 2.55711C27.9075 2.12773 27.692 1.7155 27.5807 1.26798C27.2028 2.27691 26.7923 3.27676 26.4001 4.2877H23.5019C23.4293 3.91981 23.3579 3.55091 23.2864 3.18907C23.2374 3.16891 23.2006 3.17496 23.1638 3.17496C22.3346 3.17496 21.5063 3.17496 20.6771 3.17294C20.5964 3.17294 20.5403 3.19814 20.4861 3.25458C20.1757 3.5751 19.8611 3.89058 19.5507 4.2111C19.4925 4.27056 19.4332 4.29778 19.3485 4.29677C19.0748 4.29173 18.8011 4.29576 18.5274 4.29475C18.4886 4.29475 18.4467 4.30786 18.4038 4.27359C18.4344 4.24033 18.4641 4.20807 18.4947 4.17784C18.9788 3.69807 19.4628 3.21931 19.9469 2.73954C20.8364 1.8566 21.7259 0.973669 22.6124 0.0887189C22.6716 0.0302597 22.7288 0.00304597 22.8135 0.00405389C23.3854 0.00808555 23.9573 0.00606972 24.5282 0.00606972C24.568 0.00606972 24.6099 -0.000985695 24.661 0.0191726C24.9663 1.36575 25.2737 2.71837 25.5811 4.071C25.5883 4.072 25.5954 4.07402 25.6026 4.07503C26.1367 2.7214 26.6698 1.36776 27.2059 0.00808555L27.208 0.00707764ZM38.2987 2.57323C38.1751 1.96445 38.0556 1.37784 37.932 0.769062C37.3387 1.38188 36.7668 1.97352 36.1867 2.57323H38.2987ZM23.1659 2.58029C23.0627 1.99973 22.9616 1.4353 22.8564 0.848688C22.2815 1.43126 21.7218 1.99973 21.1489 2.58029H23.1659Z" fill="white"/>
<path d="M27.208 0.00707764H29.0013C29.1177 0.249986 29.2331 0.492893 29.3485 0.736809C29.4302 0.908155 29.5068 1.08152 29.5926 1.24984C29.6283 1.3214 29.6273 1.38288 29.5997 1.45545C29.4537 1.83947 29.3117 2.2255 29.1708 2.61053C29.1565 2.64983 29.1279 2.68814 29.1381 2.73551C29.1861 2.74357 29.2055 2.70729 29.23 2.6841C30.2216 1.79613 31.2572 0.958551 32.2774 0.103838C32.3632 0.0322755 32.4469 -0.000985696 32.5613 2.22207e-05C33.0515 0.00606972 33.5417 0.00304597 34.0309 0.00304597C34.0758 0.00304597 34.1197 0.00304597 34.1871 0.00304597C33.6561 1.35265 33.1291 2.69015 32.6022 4.02665C32.6798 4.00447 32.7216 3.95105 32.7686 3.90368C33.1802 3.49548 33.5897 3.08525 34.0023 2.67705C34.6906 1.99469 35.3799 1.31334 36.0693 0.630978C36.2592 0.442498 36.4482 0.253009 36.6371 0.063521C36.6718 0.0282439 36.7045 0.00103014 36.7617 0.00103014C37.3826 0.00304597 38.0025 0.00304597 38.6234 0.00304597C38.6387 0.00304597 38.6541 0.00808555 38.6775 0.0111093C38.9992 1.4363 39.3209 2.86049 39.6447 4.29375H38.6449C38.5693 3.92384 38.4927 3.55091 38.4171 3.18101C38.3722 3.16085 38.3303 3.16891 38.2905 3.16891C37.4326 3.16891 36.5758 3.16891 35.718 3.1669C35.6322 3.1669 35.576 3.19209 35.5178 3.25257C35.2104 3.5751 34.8969 3.8926 34.5885 4.21513C34.5272 4.27863 34.4649 4.30382 34.3761 4.30382C33.1598 4.3008 31.9424 4.30181 30.7261 4.30181H30.5801C30.7823 3.78676 30.9753 3.28684 31.1745 2.78792C31.3746 2.289 31.5554 1.78202 31.779 1.29419C30.8293 2.14789 29.8315 2.94112 28.8634 3.76761C28.7878 3.83212 28.7143 3.86034 28.606 3.83111C28.4324 3.41182 28.2506 2.98648 28.0791 2.55711C27.9075 2.12773 27.692 1.7155 27.5807 1.26798C27.2028 2.27691 26.7923 3.27676 26.4001 4.2877H23.5019C23.4293 3.91981 23.3579 3.55091 23.2864 3.18907C23.2374 3.16891 23.2006 3.17496 23.1638 3.17496C22.3346 3.17496 21.5063 3.17496 20.6771 3.17294C20.5964 3.17294 20.5403 3.19814 20.4861 3.25458C20.1757 3.5751 19.8611 3.89058 19.5507 4.2111C19.4925 4.27056 19.4332 4.29778 19.3485 4.29677C19.0748 4.29173 18.8011 4.29576 18.5274 4.29475C18.4886 4.29475 18.4467 4.30786 18.4038 4.27359C18.4344 4.24033 18.4641 4.20807 18.4947 4.17784C18.9788 3.69807 19.4628 3.21931 19.9469 2.73954C20.8364 1.8566 21.7259 0.973669 22.6124 0.0887189C22.6716 0.0302597 22.7288 0.00304597 22.8135 0.00405389C23.3854 0.00808555 23.9573 0.00606972 24.5282 0.00606972C24.568 0.00606972 24.6099 -0.000985695 24.661 0.0191726C24.9663 1.36575 25.2737 2.71837 25.5811 4.071C25.5883 4.072 25.5954 4.07402 25.6026 4.07503C26.1367 2.7214 26.6698 1.36776 27.2059 0.00808555L27.208 0.00707764ZM38.2987 2.57323C38.1751 1.96445 38.0556 1.37784 37.932 0.769062C37.3387 1.38188 36.7668 1.97352 36.1867 2.57323H38.2987ZM23.1659 2.58029C23.0627 1.99973 22.9616 1.4353 22.8564 0.848688C22.2815 1.43126 21.7218 1.99973 21.1489 2.58029H23.1659Z" fill="white" fill-opacity="0.2"/>
<path d="M42.3244 7.90675C42.3693 7.88659 42.4061 7.89365 42.4428 7.89365C43.2802 7.89365 44.1166 7.89466 44.9541 7.89062C45.047 7.89062 45.1011 7.92086 45.1542 7.99444C46.8934 10.4054 48.6346 12.8143 50.3748 15.2232C50.9242 15.9842 51.4737 16.7442 52.0231 17.5051C52.0466 17.5374 52.064 17.5747 52.1028 17.5979C52.1548 17.5505 52.1855 17.489 52.2233 17.4326C53.558 15.456 54.8908 13.4795 56.2245 11.502C57.0017 10.3489 57.7788 9.19588 58.558 8.04383C58.6806 7.8624 58.6163 7.89566 58.8501 7.89365C58.8889 7.89365 58.9308 7.88155 58.9757 7.91582C58.894 8.0398 58.8134 8.16377 58.7306 8.28774C57.5603 10.0476 56.3899 11.8074 55.2186 13.5672C54.2157 15.0751 53.2149 16.5829 52.21 18.0887C52.1661 18.1552 52.1579 18.2198 52.1579 18.2933C52.1579 20.2709 52.1579 22.2494 52.1579 24.2269C52.1579 24.2783 52.1671 24.3307 52.1446 24.3912H49.7815C49.7549 24.3368 49.7662 24.2834 49.7662 24.232C49.7662 22.2585 49.7651 20.284 49.7662 18.3105C49.7662 18.2177 49.7437 18.1421 49.6875 18.0665C47.498 15.0539 45.3094 12.0392 43.1209 9.02453C42.8758 8.68789 42.6307 8.35023 42.3866 8.01359C42.3632 7.98134 42.3335 7.95211 42.3213 7.90675H42.3244Z" fill="white"/>
<path d="M42.3244 7.90675C42.3693 7.88659 42.4061 7.89365 42.4428 7.89365C43.2802 7.89365 44.1166 7.89466 44.9541 7.89062C45.047 7.89062 45.1011 7.92086 45.1542 7.99444C46.8934 10.4054 48.6346 12.8143 50.3748 15.2232C50.9242 15.9842 51.4737 16.7442 52.0231 17.5051C52.0466 17.5374 52.064 17.5747 52.1028 17.5979C52.1548 17.5505 52.1855 17.489 52.2233 17.4326C53.558 15.456 54.8908 13.4795 56.2245 11.502C57.0017 10.3489 57.7788 9.19588 58.558 8.04383C58.6806 7.8624 58.6163 7.89566 58.8501 7.89365C58.8889 7.89365 58.9308 7.88155 58.9757 7.91582C58.894 8.0398 58.8134 8.16377 58.7306 8.28774C57.5603 10.0476 56.3899 11.8074 55.2186 13.5672C54.2157 15.0751 53.2149 16.5829 52.21 18.0887C52.1661 18.1552 52.1579 18.2198 52.1579 18.2933C52.1579 20.2709 52.1579 22.2494 52.1579 24.2269C52.1579 24.2783 52.1671 24.3307 52.1446 24.3912H49.7815C49.7549 24.3368 49.7662 24.2834 49.7662 24.232C49.7662 22.2585 49.7651 20.284 49.7662 18.3105C49.7662 18.2177 49.7437 18.1421 49.6875 18.0665C47.498 15.0539 45.3094 12.0392 43.1209 9.02453C42.8758 8.68789 42.6307 8.35023 42.3866 8.01359C42.3632 7.98134 42.3335 7.95211 42.3213 7.90675H42.3244Z" fill="white" fill-opacity="0.2"/>
<path d="M13.2261 4.27289C13.5509 3.45245 13.8736 2.63704 14.1973 1.81962H15.0756C14.8468 2.39716 14.6222 2.96764 14.3985 3.53107C14.4138 3.55626 14.4312 3.55425 14.4465 3.55425C14.9357 3.54921 15.4259 3.56937 15.9151 3.53107C16.1928 3.50889 16.4625 3.45547 16.7208 3.34359C16.9292 3.25288 17.1038 3.12185 17.2202 2.93136C17.4786 2.50803 17.6859 2.06152 17.7513 1.56765C17.8044 1.17153 17.6114 0.891334 17.2682 0.768368C17.0936 0.705877 16.9128 0.677656 16.728 0.677656C16.0866 0.677656 15.4463 0.677656 14.805 0.677656C14.76 0.677656 14.7161 0.677656 14.6508 0.677656C14.7396 0.448859 14.8244 0.230141 14.9081 0.0174705C14.9531 -0.00772736 14.9939 0.0023518 15.0348 0.00134389C16.0223 0.00134389 17.0109 -0.00167986 17.9984 0.00134389C18.3426 0.0023518 18.6816 0.0487159 19.0064 0.169666C19.3628 0.301703 19.6385 0.520421 19.7641 0.88831C19.8499 1.13928 19.8428 1.3963 19.7856 1.6513C19.6498 2.26008 19.3505 2.78218 18.9226 3.23675C18.5662 3.61573 18.1424 3.89593 17.6502 4.06728C17.3612 4.16807 17.0589 4.21746 16.7545 4.25273C16.4461 4.28902 16.1377 4.29406 15.8272 4.29204C15.0154 4.28499 14.2024 4.29003 13.3895 4.28902C13.3415 4.28902 13.2915 4.29809 13.2261 4.27088V4.27289Z" fill="white"/>
<path d="M13.2261 4.27289C13.5509 3.45245 13.8736 2.63704 14.1973 1.81962H15.0756C14.8468 2.39716 14.6222 2.96764 14.3985 3.53107C14.4138 3.55626 14.4312 3.55425 14.4465 3.55425C14.9357 3.54921 15.4259 3.56937 15.9151 3.53107C16.1928 3.50889 16.4625 3.45547 16.7208 3.34359C16.9292 3.25288 17.1038 3.12185 17.2202 2.93136C17.4786 2.50803 17.6859 2.06152 17.7513 1.56765C17.8044 1.17153 17.6114 0.891334 17.2682 0.768368C17.0936 0.705877 16.9128 0.677656 16.728 0.677656C16.0866 0.677656 15.4463 0.677656 14.805 0.677656C14.76 0.677656 14.7161 0.677656 14.6508 0.677656C14.7396 0.448859 14.8244 0.230141 14.9081 0.0174705C14.9531 -0.00772736 14.9939 0.0023518 15.0348 0.00134389C16.0223 0.00134389 17.0109 -0.00167986 17.9984 0.00134389C18.3426 0.0023518 18.6816 0.0487159 19.0064 0.169666C19.3628 0.301703 19.6385 0.520421 19.7641 0.88831C19.8499 1.13928 19.8428 1.3963 19.7856 1.6513C19.6498 2.26008 19.3505 2.78218 18.9226 3.23675C18.5662 3.61573 18.1424 3.89593 17.6502 4.06728C17.3612 4.16807 17.0589 4.21746 16.7545 4.25273C16.4461 4.28902 16.1377 4.29406 15.8272 4.29204C15.0154 4.28499 14.2024 4.29003 13.3895 4.28902C13.3415 4.28902 13.2915 4.29809 13.2261 4.27088V4.27289Z" fill="white" fill-opacity="0.2"/>
<path d="M46.3737 0.0271968C46.2174 0.469672 46.0336 0.896021 45.8702 1.32741H44.9919C45.0767 1.10668 45.1594 0.894005 45.2401 0.684358C45.2084 0.646058 45.1737 0.660168 45.1441 0.65916C44.7805 0.658153 44.417 0.649081 44.0544 0.660168C43.1527 0.68839 42.497 1.10567 42.0977 1.90394C41.9466 2.2053 41.8414 2.52179 41.8485 2.86549C41.8536 3.12251 41.9629 3.31099 42.207 3.41884C42.4266 3.5166 42.6584 3.55591 42.8943 3.57909C43.3375 3.62344 43.7828 3.59724 44.228 3.60328C44.4568 3.60631 44.6845 3.60328 44.9347 3.60328C44.8449 3.83712 44.7601 4.05987 44.6794 4.27355C44.6253 4.30076 44.5793 4.29169 44.5354 4.29169C43.6909 4.29169 42.8453 4.29572 42.0007 4.29068C41.5646 4.28766 41.1275 4.27254 40.7027 4.15865C40.2278 4.03165 39.9153 3.74238 39.8214 3.25858C39.755 2.91589 39.7958 2.57723 39.9143 2.24764C40.142 1.61769 40.5117 1.08652 41.0683 0.696453C41.5269 0.37392 42.0416 0.178384 42.594 0.0745689C42.8677 0.0231651 43.1435 0.00502264 43.4213 0.00502264C44.3516 0.00603056 45.283 0.00502264 46.2133 0.00502264C46.2573 0.00502264 46.3032 -0.00304069 46.3757 0.0241731L46.3737 0.0271968Z" fill="white"/>
<path d="M46.3737 0.0271968C46.2174 0.469672 46.0336 0.896021 45.8702 1.32741H44.9919C45.0767 1.10668 45.1594 0.894005 45.2401 0.684358C45.2084 0.646058 45.1737 0.660168 45.1441 0.65916C44.7805 0.658153 44.417 0.649081 44.0544 0.660168C43.1527 0.68839 42.497 1.10567 42.0977 1.90394C41.9466 2.2053 41.8414 2.52179 41.8485 2.86549C41.8536 3.12251 41.9629 3.31099 42.207 3.41884C42.4266 3.5166 42.6584 3.55591 42.8943 3.57909C43.3375 3.62344 43.7828 3.59724 44.228 3.60328C44.4568 3.60631 44.6845 3.60328 44.9347 3.60328C44.8449 3.83712 44.7601 4.05987 44.6794 4.27355C44.6253 4.30076 44.5793 4.29169 44.5354 4.29169C43.6909 4.29169 42.8453 4.29572 42.0007 4.29068C41.5646 4.28766 41.1275 4.27254 40.7027 4.15865C40.2278 4.03165 39.9153 3.74238 39.8214 3.25858C39.755 2.91589 39.7958 2.57723 39.9143 2.24764C40.142 1.61769 40.5117 1.08652 41.0683 0.696453C41.5269 0.37392 42.0416 0.178384 42.594 0.0745689C42.8677 0.0231651 43.1435 0.00502264 43.4213 0.00502264C44.3516 0.00603056 45.283 0.00502264 46.2133 0.00502264C46.2573 0.00502264 46.3032 -0.00304069 46.3757 0.0241731L46.3737 0.0271968Z" fill="white" fill-opacity="0.2"/>
<path d="M15.0991 29.5051C15.192 29.5293 15.2666 29.5455 15.3401 29.5676C15.4892 29.613 15.6301 29.6745 15.7455 29.7823C15.9978 30.0172 15.9876 30.4042 15.72 30.6229C15.5178 30.7882 15.2748 30.8527 15.0225 30.891C14.8091 30.9243 14.5936 30.9374 14.3761 30.9364C13.7766 30.9354 13.1761 30.9364 12.5766 30.9364H12.4459C12.4204 30.8396 12.4112 28.4237 12.4336 28.1918C12.4673 28.1616 12.5092 28.1747 12.548 28.1747C13.1557 28.1747 13.7643 28.1717 14.372 28.1747C14.6293 28.1757 14.8846 28.2039 15.1318 28.2836C15.288 28.334 15.4351 28.4005 15.5525 28.5194C15.7547 28.725 15.7558 29.0405 15.5566 29.2491C15.4351 29.3761 15.2799 29.4437 15.0991 29.5041V29.5051ZM12.8769 30.6955C13.026 30.6955 13.1608 30.6965 13.2946 30.6955C13.7592 30.6895 14.2249 30.7126 14.6896 30.6753C14.8857 30.6592 15.0787 30.63 15.2533 30.5332C15.3953 30.4546 15.4759 30.3377 15.4749 30.1714C15.4739 30.0041 15.3881 29.8912 15.2441 29.8156C15.1757 29.7793 15.1032 29.7531 15.0276 29.7339C14.8295 29.6825 14.6263 29.6624 14.422 29.6614C13.9482 29.6614 13.4753 29.6614 13.0015 29.6614C12.9616 29.6614 12.9208 29.6523 12.8758 29.6755V30.6965L12.8769 30.6955ZM12.8769 29.3953C12.9075 29.4185 12.933 29.4134 12.9565 29.4134C13.4049 29.4134 13.8532 29.4154 14.3015 29.4124C14.4435 29.4114 14.5864 29.3973 14.7263 29.3661C14.8663 29.3348 15.0031 29.2945 15.1154 29.2008C15.3013 29.0476 15.3033 28.7905 15.1226 28.6323C15.0603 28.5779 14.9868 28.5446 14.9102 28.5164C14.7366 28.4529 14.5558 28.4287 14.3709 28.4226C13.9104 28.4065 13.4498 28.4186 12.9892 28.4156C12.9535 28.4156 12.9157 28.4075 12.8769 28.4368V29.3953Z" fill="white"/>
<path d="M15.0991 29.5051C15.192 29.5293 15.2666 29.5455 15.3401 29.5676C15.4892 29.613 15.6301 29.6745 15.7455 29.7823C15.9978 30.0172 15.9876 30.4042 15.72 30.6229C15.5178 30.7882 15.2748 30.8527 15.0225 30.891C14.8091 30.9243 14.5936 30.9374 14.3761 30.9364C13.7766 30.9354 13.1761 30.9364 12.5766 30.9364H12.4459C12.4204 30.8396 12.4112 28.4237 12.4336 28.1918C12.4673 28.1616 12.5092 28.1747 12.548 28.1747C13.1557 28.1747 13.7643 28.1717 14.372 28.1747C14.6293 28.1757 14.8846 28.2039 15.1318 28.2836C15.288 28.334 15.4351 28.4005 15.5525 28.5194C15.7547 28.725 15.7558 29.0405 15.5566 29.2491C15.4351 29.3761 15.2799 29.4437 15.0991 29.5041V29.5051ZM12.8769 30.6955C13.026 30.6955 13.1608 30.6965 13.2946 30.6955C13.7592 30.6895 14.2249 30.7126 14.6896 30.6753C14.8857 30.6592 15.0787 30.63 15.2533 30.5332C15.3953 30.4546 15.4759 30.3377 15.4749 30.1714C15.4739 30.0041 15.3881 29.8912 15.2441 29.8156C15.1757 29.7793 15.1032 29.7531 15.0276 29.7339C14.8295 29.6825 14.6263 29.6624 14.422 29.6614C13.9482 29.6614 13.4753 29.6614 13.0015 29.6614C12.9616 29.6614 12.9208 29.6523 12.8758 29.6755V30.6965L12.8769 30.6955ZM12.8769 29.3953C12.9075 29.4185 12.933 29.4134 12.9565 29.4134C13.4049 29.4134 13.8532 29.4154 14.3015 29.4124C14.4435 29.4114 14.5864 29.3973 14.7263 29.3661C14.8663 29.3348 15.0031 29.2945 15.1154 29.2008C15.3013 29.0476 15.3033 28.7905 15.1226 28.6323C15.0603 28.5779 14.9868 28.5446 14.9102 28.5164C14.7366 28.4529 14.5558 28.4287 14.3709 28.4226C13.9104 28.4065 13.4498 28.4186 12.9892 28.4156C12.9535 28.4156 12.9157 28.4075 12.8769 28.4368V29.3953Z" fill="white" fill-opacity="0.2"/>
<path d="M29.9735 30.9333H29.5037C29.3383 30.6914 29.1728 30.4475 29.0084 30.2076C28.9655 30.1874 28.9247 30.1955 28.8838 30.1955C28.1894 30.1955 27.496 30.1965 26.8015 30.1935C26.7147 30.1935 26.6606 30.2167 26.6126 30.2912C26.488 30.4848 26.3532 30.6722 26.2276 30.8647C26.1918 30.9192 26.153 30.9414 26.0887 30.9383C25.9712 30.9333 25.8548 30.9373 25.7261 30.9373C25.7435 30.8768 25.7762 30.8406 25.8027 30.8023C26.3797 29.9677 26.9588 29.1342 27.5327 28.2976C27.5981 28.2028 27.6655 28.1575 27.7819 28.1726C27.8738 28.1847 27.979 28.1464 28.0597 28.1877C28.1404 28.229 28.1751 28.3288 28.2282 28.4054C28.7786 29.1997 29.3281 29.9939 29.8785 30.7881C29.9081 30.8305 29.9357 30.8738 29.9755 30.9343L29.9735 30.9333ZM28.8348 29.9496C28.4978 29.4527 28.1751 28.9749 27.8411 28.482C27.5082 28.9739 27.1824 29.4557 26.8475 29.9496H28.8348Z" fill="white"/>
<path d="M29.9735 30.9333H29.5037C29.3383 30.6914 29.1728 30.4475 29.0084 30.2076C28.9655 30.1874 28.9247 30.1955 28.8838 30.1955C28.1894 30.1955 27.496 30.1965 26.8015 30.1935C26.7147 30.1935 26.6606 30.2167 26.6126 30.2912C26.488 30.4848 26.3532 30.6722 26.2276 30.8647C26.1918 30.9192 26.153 30.9414 26.0887 30.9383C25.9712 30.9333 25.8548 30.9373 25.7261 30.9373C25.7435 30.8768 25.7762 30.8406 25.8027 30.8023C26.3797 29.9677 26.9588 29.1342 27.5327 28.2976C27.5981 28.2028 27.6655 28.1575 27.7819 28.1726C27.8738 28.1847 27.979 28.1464 28.0597 28.1877C28.1404 28.229 28.1751 28.3288 28.2282 28.4054C28.7786 29.1997 29.3281 29.9939 29.8785 30.7881C29.9081 30.8305 29.9357 30.8738 29.9755 30.9343L29.9735 30.9333ZM28.8348 29.9496C28.4978 29.4527 28.1751 28.9749 27.8411 28.482C27.5082 28.9739 27.1824 29.4557 26.8475 29.9496H28.8348Z" fill="white" fill-opacity="0.2"/>
<path d="M37.979 30.9301H37.5215C37.4827 30.8747 37.4388 30.8122 37.3959 30.7497C37.2866 30.5894 37.1784 30.4282 37.0701 30.2669C37.0425 30.2256 37.016 30.1933 36.9557 30.1933C36.2092 30.1964 35.4616 30.1964 34.7151 30.1984C34.711 30.1984 34.7069 30.2004 34.6947 30.2044C34.5507 30.4161 34.4006 30.6308 34.2576 30.8505C34.2147 30.916 34.1677 30.9422 34.0891 30.9382C33.9798 30.9311 33.8685 30.9362 33.7602 30.9362C33.7408 30.8938 33.7735 30.8737 33.7899 30.8495C34.3873 29.9847 34.9857 29.1209 35.5811 28.2551C35.622 28.1946 35.6679 28.1674 35.7415 28.1725C35.8232 28.1775 35.9049 28.1775 35.9866 28.1725C36.0601 28.1674 36.104 28.1967 36.1459 28.2571C36.5421 28.8337 36.9404 29.4082 37.3387 29.9827C37.5297 30.2589 37.7206 30.534 37.9116 30.8102C37.9361 30.8455 37.9657 30.8787 37.979 30.9301ZM36.8546 29.9484C36.5176 29.4515 36.1929 28.9727 35.8609 28.4819C35.526 28.9768 35.2012 29.4555 34.8683 29.9484H36.8556H36.8546Z" fill="white"/>
<path d="M37.979 30.9301H37.5215C37.4827 30.8747 37.4388 30.8122 37.3959 30.7497C37.2866 30.5894 37.1784 30.4282 37.0701 30.2669C37.0425 30.2256 37.016 30.1933 36.9557 30.1933C36.2092 30.1964 35.4616 30.1964 34.7151 30.1984C34.711 30.1984 34.7069 30.2004 34.6947 30.2044C34.5507 30.4161 34.4006 30.6308 34.2576 30.8505C34.2147 30.916 34.1677 30.9422 34.0891 30.9382C33.9798 30.9311 33.8685 30.9362 33.7602 30.9362C33.7408 30.8938 33.7735 30.8737 33.7899 30.8495C34.3873 29.9847 34.9857 29.1209 35.5811 28.2551C35.622 28.1946 35.6679 28.1674 35.7415 28.1725C35.8232 28.1775 35.9049 28.1775 35.9866 28.1725C36.0601 28.1674 36.104 28.1967 36.1459 28.2571C36.5421 28.8337 36.9404 29.4082 37.3387 29.9827C37.5297 30.2589 37.7206 30.534 37.9116 30.8102C37.9361 30.8455 37.9657 30.8787 37.979 30.9301ZM36.8546 29.9484C36.5176 29.4515 36.1929 28.9727 35.8609 28.4819C35.526 28.9768 35.2012 29.4555 34.8683 29.9484H36.8556H36.8546Z" fill="white" fill-opacity="0.2"/>
<path d="M25.2666 30.3685C25.3606 30.4299 25.4525 30.4813 25.5383 30.5519C25.5035 30.6033 25.4504 30.6265 25.4035 30.6537C25.1206 30.817 24.8091 30.8966 24.4874 30.9359C24.0135 30.9944 23.5417 30.9752 23.0801 30.8452C22.7135 30.7424 22.3847 30.5741 22.1191 30.2939C21.7127 29.8635 21.7178 29.1721 22.2008 28.7366C22.5031 28.4645 22.8626 28.3133 23.2548 28.2317C23.89 28.0986 24.5191 28.1198 25.1359 28.3335C25.2247 28.3647 25.3085 28.405 25.3902 28.4514C25.4392 28.4796 25.4862 28.5109 25.5454 28.5482C25.4596 28.6318 25.3595 28.6762 25.2717 28.7457C25.0552 28.6076 24.8234 28.5129 24.5711 28.4685C24.0023 28.3688 23.4488 28.402 22.9239 28.657C22.739 28.7467 22.5777 28.8697 22.45 29.032C22.1835 29.3726 22.207 29.8322 22.5041 30.1487C22.737 30.3977 23.0301 30.5418 23.3559 30.6204C23.8205 30.7323 24.2852 30.7293 24.7478 30.6053C24.9337 30.5549 25.1052 30.4713 25.2646 30.3675L25.2666 30.3685Z" fill="white"/>
<path d="M25.2666 30.3685C25.3606 30.4299 25.4525 30.4813 25.5383 30.5519C25.5035 30.6033 25.4504 30.6265 25.4035 30.6537C25.1206 30.817 24.8091 30.8966 24.4874 30.9359C24.0135 30.9944 23.5417 30.9752 23.0801 30.8452C22.7135 30.7424 22.3847 30.5741 22.1191 30.2939C21.7127 29.8635 21.7178 29.1721 22.2008 28.7366C22.5031 28.4645 22.8626 28.3133 23.2548 28.2317C23.89 28.0986 24.5191 28.1198 25.1359 28.3335C25.2247 28.3647 25.3085 28.405 25.3902 28.4514C25.4392 28.4796 25.4862 28.5109 25.5454 28.5482C25.4596 28.6318 25.3595 28.6762 25.2717 28.7457C25.0552 28.6076 24.8234 28.5129 24.5711 28.4685C24.0023 28.3688 23.4488 28.402 22.9239 28.657C22.739 28.7467 22.5777 28.8697 22.45 29.032C22.1835 29.3726 22.207 29.8322 22.5041 30.1487C22.737 30.3977 23.0301 30.5418 23.3559 30.6204C23.8205 30.7323 24.2852 30.7293 24.7478 30.6053C24.9337 30.5549 25.1052 30.4713 25.2646 30.3675L25.2666 30.3685Z" fill="white" fill-opacity="0.2"/>
<path d="M31.8648 30.5667C31.9731 30.4064 32.0752 30.2573 32.1753 30.1071C32.5868 29.4933 33.0004 28.8805 33.4089 28.2646C33.4549 28.1951 33.506 28.1658 33.5887 28.1729C33.6928 28.182 33.7991 28.1628 33.9032 28.184C33.9012 28.2324 33.8705 28.2616 33.8491 28.2949C33.2823 29.1405 32.7135 29.9851 32.1508 30.8328C32.0966 30.9144 32.0374 30.9467 31.9424 30.9386C31.8699 30.9316 31.7954 30.9346 31.7218 30.9386C31.6636 30.9416 31.6238 30.9245 31.5901 30.8741C31.0019 29.9942 30.4126 29.1153 29.8244 28.2354C29.8162 28.2223 29.8101 28.2072 29.7958 28.1769C29.953 28.1769 30.097 28.1759 30.2421 28.1769C30.285 28.1769 30.2992 28.2172 30.3187 28.2475C30.7149 28.8422 31.1111 29.4378 31.5074 30.0325C31.6238 30.2069 31.7402 30.3812 31.8648 30.5677V30.5667Z" fill="white"/>
<path d="M31.8648 30.5667C31.9731 30.4064 32.0752 30.2573 32.1753 30.1071C32.5868 29.4933 33.0004 28.8805 33.4089 28.2646C33.4549 28.1951 33.506 28.1658 33.5887 28.1729C33.6928 28.182 33.7991 28.1628 33.9032 28.184C33.9012 28.2324 33.8705 28.2616 33.8491 28.2949C33.2823 29.1405 32.7135 29.9851 32.1508 30.8328C32.0966 30.9144 32.0374 30.9467 31.9424 30.9386C31.8699 30.9316 31.7954 30.9346 31.7218 30.9386C31.6636 30.9416 31.6238 30.9245 31.5901 30.8741C31.0019 29.9942 30.4126 29.1153 29.8244 28.2354C29.8162 28.2223 29.8101 28.2072 29.7958 28.1769C29.953 28.1769 30.097 28.1759 30.2421 28.1769C30.285 28.1769 30.2992 28.2172 30.3187 28.2475C30.7149 28.8422 31.1111 29.4378 31.5074 30.0325C31.6238 30.2069 31.7402 30.3812 31.8648 30.5677V30.5667Z" fill="white" fill-opacity="0.2"/>
<path d="M16.1663 28.1748C16.3358 28.1748 16.4767 28.1728 16.6187 28.1758C16.6687 28.1768 16.6912 28.2231 16.7208 28.2554C17.1283 28.6949 17.5347 29.1343 17.9422 29.5748C17.9831 29.6191 18.0259 29.6625 18.0739 29.7139C18.2353 29.5405 18.3915 29.3732 18.5478 29.2038C18.8419 28.8864 19.1371 28.5689 19.4291 28.2483C19.4802 28.1919 19.5333 28.1667 19.6099 28.1728C19.711 28.1808 19.8131 28.1657 19.9193 28.1828C19.9081 28.2473 19.857 28.2786 19.8203 28.3179C19.3342 28.845 18.8491 29.3712 18.3599 29.8953C18.2996 29.9598 18.2772 30.0243 18.2792 30.11C18.2833 30.3791 18.2813 30.6492 18.2813 30.9324C18.1352 30.9405 17.9953 30.9395 17.8503 30.9324C17.834 30.873 17.8411 30.8165 17.8411 30.7611C17.8401 30.5353 17.838 30.3105 17.8421 30.0848C17.8431 30.0152 17.8227 29.9648 17.7757 29.9134C17.2764 29.3772 16.78 28.838 16.2827 28.3008C16.251 28.2665 16.2194 28.2312 16.1683 28.1758L16.1663 28.1748Z" fill="white"/>
<path d="M16.1663 28.1748C16.3358 28.1748 16.4767 28.1728 16.6187 28.1758C16.6687 28.1768 16.6912 28.2231 16.7208 28.2554C17.1283 28.6949 17.5347 29.1343 17.9422 29.5748C17.9831 29.6191 18.0259 29.6625 18.0739 29.7139C18.2353 29.5405 18.3915 29.3732 18.5478 29.2038C18.8419 28.8864 19.1371 28.5689 19.4291 28.2483C19.4802 28.1919 19.5333 28.1667 19.6099 28.1728C19.711 28.1808 19.8131 28.1657 19.9193 28.1828C19.9081 28.2473 19.857 28.2786 19.8203 28.3179C19.3342 28.845 18.8491 29.3712 18.3599 29.8953C18.2996 29.9598 18.2772 30.0243 18.2792 30.11C18.2833 30.3791 18.2813 30.6492 18.2813 30.9324C18.1352 30.9405 17.9953 30.9395 17.8503 30.9324C17.834 30.873 17.8411 30.8165 17.8411 30.7611C17.8401 30.5353 17.838 30.3105 17.8421 30.0848C17.8431 30.0152 17.8227 29.9648 17.7757 29.9134C17.2764 29.3772 16.78 28.838 16.2827 28.3008C16.251 28.2665 16.2194 28.2312 16.1683 28.1758L16.1663 28.1748Z" fill="white" fill-opacity="0.2"/>
<path d="M42.642 28.1797C42.6481 28.342 42.6441 28.5052 42.6451 28.6685C42.6451 28.8338 42.6451 28.9991 42.6451 29.1634V30.6743H44.9786C44.9878 30.767 44.9858 30.8446 44.9796 30.9283H42.2029V28.1797H42.642Z" fill="white"/>
<path d="M42.642 28.1797C42.6481 28.342 42.6441 28.5052 42.6451 28.6685C42.6451 28.8338 42.6451 28.9991 42.6451 29.1634V30.6743H44.9786C44.9878 30.767 44.9858 30.8446 44.9796 30.9283H42.2029V28.1797H42.642Z" fill="white" fill-opacity="0.2"/>
<path d="M39.1228 30.6801H41.4543C41.4757 30.7658 41.4706 30.8414 41.4594 30.926H38.6918V28.1815C38.8348 28.1653 38.9717 28.1744 39.1228 28.1744V30.6801Z" fill="white"/>
<path d="M39.1228 30.6801H41.4543C41.4757 30.7658 41.4706 30.8414 41.4594 30.926H38.6918V28.1815C38.8348 28.1653 38.9717 28.1744 39.1228 28.1744V30.6801Z" fill="white" fill-opacity="0.2"/>
<path d="M46.151 30.9292C46.0121 30.9292 45.8753 30.9292 45.7384 30.9292C45.7108 30.8466 45.7037 28.3358 45.7313 28.1806C45.8671 28.1655 46.0039 28.1746 46.151 28.1746V30.9292Z" fill="white"/>
<path d="M46.151 30.9292C46.0121 30.9292 45.8753 30.9292 45.7384 30.9292C45.7108 30.8466 45.7037 28.3358 45.7313 28.1806C45.8671 28.1655 46.0039 28.1746 46.151 28.1746V30.9292Z" fill="white" fill-opacity="0.2"/>
</svg>
