<svg width="100" height="12" viewBox="0 0 100 12" fill="none" xmlns="http://www.w3.org/2000/svg">
<path d="M17.0233 9.18817C18.0274 8.27349 18.8239 7.15958 19.3602 5.91968C20.1578 4.04795 20.0906 2.592 19.1587 1.55184C18.2268 0.511671 16.4644 -0.00559216 13.8716 4.55884e-05H5.11556L4.32228 1.87742H10.3555C13.4342 1.87742 14.3261 3.38269 13.2627 5.8774C12.6495 7.31925 12.1093 8.64694 10.8272 9.23468C9.65653 9.78013 8.44732 9.93658 6.29475 9.93658H3.50327L5.58295 5.07402H2.95441L0 11.9873H7.93276C9.7111 12.0525 11.4895 11.8602 13.2113 11.4165C14.6321 10.9683 15.9341 10.2144 17.0233 9.20931V9.18817ZM74.0963 4.55884e-05H70.846L58.3508 11.4884L63.2349 4.55884e-05H57.8792L51.4086 4.981L48.0897 7.67866H47.9396L49.5047 3.76324L47.5837 4.55884e-05H42.2023L37.3097 11.5053L34.4925 4.55884e-05H28.5965L15.5739 11.9873H18.8285L22.156 8.85413H30.3632L31.015 11.9873H39.7324L42.8841 4.57931C43.0598 4.16482 43.2129 3.74138 43.3429 3.31082C43.3701 3.73686 43.4777 4.15416 43.6602 4.54126L46.4303 10.723H46.9019L54.8304 4.56663C55.3024 4.1684 55.7519 3.74493 56.1768 3.29813C55.871 3.86191 55.6566 4.28474 55.5336 4.56663L52.3777 12H64.1997L67.4928 8.8499H76.013L76.6991 12H79.7007L76.7763 4.55884e-05H74.0963ZM23.8755 7.21778L29.0682 2.3383L30.0073 7.21778H23.8755ZM69.2209 7.21778L74.5508 2.1142L75.6571 7.18818L69.2209 7.21778ZM99.9185 0.135355L99.9614 0.0296469H91.2053C88.9032 -0.0386011 86.624 0.498442 84.6019 1.58566C82.8407 2.55874 81.4598 4.08417 80.6784 5.91968C80.1951 6.93295 80.0452 8.06982 80.2496 9.17126C80.366 9.66696 80.6034 10.1271 80.9411 10.5118C81.2789 10.8964 81.7068 11.1939 82.1877 11.3784C83.1354 11.7801 84.7262 11.9831 86.9474 11.9831H94.863L95.652 10.0803H91.1968C89.0528 10.0803 87.6163 9.80973 86.9088 9.26428C86.1241 8.67655 86.2098 7.31503 86.823 5.88163C87.8822 3.38693 90.1076 1.83091 93.1821 1.83091H96.6382L95.8449 3.70405H98.4735L100 0.109979L99.9185 0.135355Z" fill="white"/>
</svg>
