<svg width="195" height="25" viewBox="0 0 195 25" fill="none" xmlns="http://www.w3.org/2000/svg">
<path d="M33.1954 18.6635C35.1535 16.8055 36.7065 14.5429 37.7525 12.0244C39.3077 8.2224 39.1767 5.265 37.3595 3.15217C35.5422 1.03933 32.1056 -0.0113591 27.0497 9.26013e-05H9.97534L8.42844 3.8135H20.1932C26.1968 3.8135 27.936 6.8711 25.8623 11.9385C24.6666 14.8672 23.6131 17.5641 21.1129 18.7579C18.8302 19.8659 16.4723 20.1837 12.2748 20.1837H6.83138L10.8867 10.3066H5.7611L0 24.3492H15.4689C18.9367 24.4816 22.4046 24.091 25.762 23.1897C28.5325 22.2794 31.0715 20.748 33.1954 18.7064V18.6635ZM144.488 9.26013e-05H138.15L113.784 23.3358L123.308 9.26013e-05H112.864L100.247 10.1177L93.7749 15.5973H93.4823L96.5342 7.64408L92.7883 9.26013e-05H82.2945L72.7539 23.3701L67.2604 9.26013e-05H55.7633L30.3692 24.3492H36.7156L43.2042 17.985H59.2082L60.4792 24.3492H77.4782L83.624 9.30172C83.9666 8.45978 84.2652 7.59969 84.5187 6.72509C84.5717 7.5905 84.7815 8.43814 85.1374 9.22443L90.539 21.7812H91.4588L106.919 9.27596C107.84 8.46706 108.716 7.60689 109.545 6.69933C108.948 7.8445 108.53 8.70337 108.291 9.27596L102.136 24.375H125.189L131.611 17.9764H148.225L149.563 24.375H155.416L149.714 9.26013e-05H144.488ZM46.5572 14.6611L56.683 4.74968L58.5142 14.6611H46.5572ZM134.981 14.6611L145.374 4.29447L147.531 14.601L134.981 14.6611ZM194.841 0.274939L194.925 0.0602202H177.85C173.361 -0.0784085 168.917 1.01246 164.974 3.22088C161.539 5.19743 158.847 8.29597 157.323 12.0244C156.381 14.0826 156.088 16.3918 156.487 18.6291C156.714 19.636 157.177 20.5707 157.835 21.3521C158.494 22.1334 159.328 22.7377 160.266 23.1125C162.114 23.9284 165.216 24.3406 169.547 24.3406H184.983L186.521 20.4757H177.834C173.653 20.4757 170.852 19.926 169.472 18.8181C167.942 17.6242 168.109 14.8587 169.305 11.9471C171.37 6.87969 175.71 3.71903 181.705 3.71903H188.445L186.898 7.52384H192.023L195 0.223396L194.841 0.274939Z" fill="white"/>
</svg>
