<svg width="160" height="20" viewBox="0 0 160 20" fill="none" xmlns="http://www.w3.org/2000/svg">
<path d="M27.2372 15.3136C28.8439 13.7892 30.1182 11.9326 30.9764 9.86614C32.2525 6.74658 32.145 4.32 30.6539 2.58639C29.1628 0.852784 26.3431 -0.00932027 22.1946 7.59806e-05H8.18489L6.91565 3.12903H16.5688C21.4948 3.12903 22.9218 5.63782 21.2204 9.79566C20.2393 12.1988 19.3748 14.4116 17.3234 15.3911C15.4505 16.3002 13.5157 16.561 10.0716 16.561H5.60524L8.93271 8.4567H4.72706L0 19.9789H12.6924C15.5378 20.0875 18.3832 19.767 21.138 19.0275C23.4113 18.2805 25.4946 17.024 27.2372 15.3489V15.3136ZM118.554 7.59806e-05H113.354L93.3613 19.1473L101.176 7.59806e-05H92.6067L82.2538 8.30166L76.9435 12.7978H76.7034L79.2076 6.27207L76.134 7.59806e-05H67.5237L59.6955 19.1755L55.188 7.59806e-05H45.7545L24.9183 19.9789H30.1256L35.4496 14.7569H48.5811L49.6239 19.9789H63.5719L68.6145 7.63218C68.8956 6.94136 69.1407 6.23564 69.3486 5.51803C69.3921 6.2281 69.5643 6.9236 69.8564 7.56876L74.2884 17.8717H75.0431L87.7287 7.61104C88.4839 6.94733 89.203 6.24155 89.8829 5.49688C89.3935 6.43651 89.0505 7.14123 88.8538 7.61104L83.8043 20H102.719L107.989 14.7498H121.621L122.719 20H127.521L122.842 7.59806e-05H118.554ZM38.2008 12.0296L46.5092 3.89717L48.0116 12.0296H38.2008ZM110.753 12.0296L119.281 3.52367L121.051 11.9803L110.753 12.0296ZM159.87 0.225591L159.938 0.0494115H145.929C142.245 -0.0643352 138.598 0.830737 135.363 2.64277C132.545 4.26456 130.336 6.80695 129.085 9.86614C128.312 11.5549 128.072 13.4497 128.399 15.2854C128.586 16.1116 128.965 16.8786 129.506 17.5197C130.046 18.1607 130.731 18.6566 131.5 18.9641C133.017 19.6335 135.562 19.9718 139.116 19.9718H151.781L153.043 16.8006H145.915C142.484 16.8006 140.186 16.3496 139.054 15.4405C137.799 14.4609 137.936 12.1917 138.917 9.80272C140.611 5.64488 144.172 3.05151 149.091 3.05151H154.621L153.352 6.17341H157.558L160 0.183299L159.87 0.225591Z" fill="white"/>
</svg>
