<svg width="25" height="25" viewBox="0 0 25 25" fill="none" xmlns="http://www.w3.org/2000/svg">
<g opacity="0.8" clip-path="url(#clip0_4162_4429)">
<path fill-rule="evenodd" clip-rule="evenodd" d="M0.453125 12.4991C0.453125 5.84398 5.84788 0.449219 12.503 0.449219C19.1582 0.449219 24.553 5.84398 24.553 12.4991C24.553 19.1543 19.1582 24.5491 12.503 24.5491C5.84788 24.5491 0.453125 19.1543 0.453125 12.4991ZM12.503 1.54922C6.4554 1.54922 1.55313 6.45149 1.55313 12.4991C1.55313 18.5468 6.4554 23.4491 12.503 23.4491C18.5507 23.4491 23.453 18.5468 23.453 12.4991C23.453 6.45149 18.5507 1.54922 12.503 1.54922Z" fill="#B0A392"/>
<path d="M10.5675 19.05H14.4825C17.745 19.05 19.05 17.745 19.05 14.4825V10.5675C19.05 7.305 17.745 6 14.4825 6H10.5675C7.305 6 6 7.305 6 10.5675V14.4825C6 17.745 7.305 19.05 10.5675 19.05Z" stroke="#B0A392" stroke-width="0.8125" stroke-linecap="round" stroke-linejoin="round"/>
<path d="M12.5259 14.8058C13.7872 14.8058 14.8097 13.7833 14.8097 12.522C14.8097 11.2608 13.7872 10.2383 12.5259 10.2383C11.2647 10.2383 10.2422 11.2608 10.2422 12.522C10.2422 13.7833 11.2647 14.8058 12.5259 14.8058Z" stroke="#B0A392" stroke-width="0.8125" stroke-linecap="round" stroke-linejoin="round"/>
<path d="M16.2041 9.25594H16.2117" stroke="#B0A392" stroke-width="1.08333" stroke-linecap="round" stroke-linejoin="round"/>
</g>
<defs>
<clipPath id="clip0_4162_4429">
<rect width="25" height="25" fill="white"/>
</clipPath>
</defs>
</svg>
