<svg width="26" height="26" viewBox="0 0 26 26" fill="none" xmlns="http://www.w3.org/2000/svg">
<rect x="0.5" y="0.5" width="25" height="25" rx="4.5" stroke="#9C9C9C"/>
<path d="M21 1C23.2091 1 25 2.79086 25 5V21C25 23.2091 23.2091 25 21 25H5C2.79086 25 1 23.2091 1 21V5C1 2.79086 2.79086 1 5 1L21 1Z" fill="black" fill-opacity="0.6"/>
<path d="M17.7866 0L26 0V26H14L17.7866 0Z" fill="url(#paint0_linear_3901_1606)" fill-opacity="0.1"/>
<g filter="url(#filter0_dd_3901_1606)">
<g clip-path="url(#clip0_3901_1606)">
<rect x="4" y="4" width="18" height="18" rx="4" fill="white"/>
<rect x="4" y="4" width="18" height="18" rx="4" fill="url(#paint1_linear_3901_1606)" fill-opacity="0.17"/>
<path d="M13.074 16.86C12.4654 16.86 11.9484 16.739 11.523 16.497C11.0977 16.2477 10.7714 15.925 10.544 15.529C10.324 15.1257 10.214 14.6893 10.214 14.22C10.214 14 10.2397 13.791 10.291 13.593C10.3497 13.3877 10.4194 13.197 10.5 13.021C10.588 12.8377 10.6724 12.6763 10.753 12.537C10.841 12.3903 10.918 12.273 10.984 12.185L13.074 9.27C13.1107 9.23333 13.1547 9.18933 13.206 9.138C13.2574 9.07933 13.3344 9.05 13.437 9.05H14.02C14.086 9.05 14.1374 9.07567 14.174 9.127C14.218 9.171 14.24 9.226 14.24 9.292C14.24 9.32133 14.2364 9.35067 14.229 9.38C14.2217 9.402 14.2107 9.42033 14.196 9.435L12.59 11.679C12.678 11.6497 12.7807 11.6313 12.898 11.624C13.0154 11.6093 13.1217 11.602 13.217 11.602C13.6204 11.6093 13.987 11.6827 14.317 11.822C14.647 11.9613 14.9294 12.152 15.164 12.394C15.406 12.6287 15.5894 12.9037 15.714 13.219C15.8387 13.527 15.901 13.857 15.901 14.209C15.901 14.671 15.791 15.1037 15.571 15.507C15.351 15.9103 15.0284 16.2367 14.603 16.486C14.185 16.7353 13.6754 16.86 13.074 16.86ZM13.063 15.925C13.371 15.925 13.657 15.859 13.921 15.727C14.185 15.595 14.3977 15.4043 14.559 15.155C14.7277 14.8983 14.812 14.583 14.812 14.209C14.812 13.8423 14.7314 13.5343 14.57 13.285C14.4087 13.0283 14.1924 12.8377 13.921 12.713C13.657 12.581 13.371 12.515 13.063 12.515C12.755 12.515 12.469 12.581 12.205 12.713C11.941 12.8377 11.7247 13.0283 11.556 13.285C11.3947 13.5343 11.314 13.8423 11.314 14.209C11.314 14.583 11.3947 14.8983 11.556 15.155C11.7247 15.4043 11.941 15.595 12.205 15.727C12.469 15.859 12.755 15.925 13.063 15.925Z" fill="black"/>
</g>
</g>
<defs>
<filter id="filter0_dd_3901_1606" x="1.5" y="2.5" width="23" height="23" filterUnits="userSpaceOnUse" color-interpolation-filters="sRGB">
<feFlood flood-opacity="0" result="BackgroundImageFix"/>
<feColorMatrix in="SourceAlpha" type="matrix" values="0 0 0 0 0 0 0 0 0 0 0 0 0 0 0 0 0 0 127 0" result="hardAlpha"/>
<feMorphology radius="0.5" operator="dilate" in="SourceAlpha" result="effect1_dropShadow_3901_1606"/>
<feOffset/>
<feComposite in2="hardAlpha" operator="out"/>
<feColorMatrix type="matrix" values="0 0 0 0 0 0 0 0 0 0.478431 0 0 0 0 1 0 0 0 0.12 0"/>
<feBlend mode="normal" in2="BackgroundImageFix" result="effect1_dropShadow_3901_1606"/>
<feColorMatrix in="SourceAlpha" type="matrix" values="0 0 0 0 0 0 0 0 0 0 0 0 0 0 0 0 0 0 127 0" result="hardAlpha"/>
<feOffset dy="1"/>
<feGaussianBlur stdDeviation="1.25"/>
<feComposite in2="hardAlpha" operator="out"/>
<feColorMatrix type="matrix" values="0 0 0 0 0 0 0 0 0 0.478431 0 0 0 0 1 0 0 0 0.24 0"/>
<feBlend mode="normal" in2="effect1_dropShadow_3901_1606" result="effect2_dropShadow_3901_1606"/>
<feBlend mode="normal" in="SourceGraphic" in2="effect2_dropShadow_3901_1606" result="shape"/>
</filter>
<linearGradient id="paint0_linear_3901_1606" x1="13.5714" y1="26" x2="28.1497" y2="26" gradientUnits="userSpaceOnUse">
<stop stop-color="white"/>
<stop offset="1" stop-color="white" stop-opacity="0"/>
</linearGradient>
<linearGradient id="paint1_linear_3901_1606" x1="13" y1="4" x2="13" y2="22" gradientUnits="userSpaceOnUse">
<stop offset="0.43" stop-color="white" stop-opacity="0"/>
<stop offset="1" stop-color="white"/>
</linearGradient>
<clipPath id="clip0_3901_1606">
<rect x="4" y="4" width="18" height="18" rx="4" fill="white"/>
</clipPath>
</defs>
</svg>
