<svg width="38" height="29" viewBox="0 0 38 29" fill="none" xmlns="http://www.w3.org/2000/svg">
<path d="M4.42542 12.293C3.74636 12.293 3.19531 12.8437 3.19531 13.5223C3.19531 14.2009 3.74636 14.7516 4.42542 14.7516C5.10447 14.7516 5.65552 14.2009 5.65552 13.5223C5.65552 12.8437 5.10447 12.293 4.42542 12.293Z" fill="white"/>
<path d="M35.9969 7.39333C35.9969 6.82311 35.8798 6.27457 35.6693 5.77807C35.3526 5.03006 34.8276 4.39914 34.1637 3.95033C33.8318 3.72702 33.4651 3.54923 33.0746 3.42565C32.6841 3.30423 32.2676 3.23919 31.8402 3.23919H31.838C31.2674 3.23919 30.7185 3.35627 30.2196 3.56658C29.4711 3.88312 28.8376 4.40781 28.3907 5.07126C28.1672 5.40298 27.9893 5.7694 27.8657 6.16183C27.7442 6.55209 27.6791 6.96837 27.6791 7.39549C27.6791 7.96788 27.7962 8.51859 28.0067 9.01509C28.0305 9.07146 28.0544 9.12566 28.0804 9.17987H13.2693V0H10.9219V11.5518H31.838C32.4086 11.5518 32.9575 11.4347 33.4543 11.2244C34.2028 10.9079 34.8341 10.381 35.2832 9.71973C35.5066 9.38801 35.6845 9.02159 35.8082 8.62916C35.9297 8.2389 35.9948 7.82262 35.9948 7.39333H35.9969ZM33.4803 8.0893C33.3458 8.40801 33.118 8.68336 32.8316 8.87416C32.6884 8.96956 32.5322 9.04544 32.3652 9.09748C32.1981 9.14951 32.0224 9.1777 31.8337 9.1777C31.5842 9.1777 31.352 9.12783 31.1394 9.03894C30.8205 8.90451 30.545 8.67686 30.3541 8.39067C30.2586 8.24757 30.1827 8.09146 30.1306 7.92452C30.0785 7.75757 30.0503 7.58195 30.0503 7.39333C30.0503 7.14399 30.1002 6.912 30.1892 6.69952C30.3237 6.38081 30.5515 6.10546 30.8379 5.91466C30.981 5.81926 31.1373 5.74338 31.3043 5.69134C31.4714 5.63931 31.6471 5.61112 31.8358 5.61112C32.0853 5.61112 32.3175 5.66099 32.5301 5.75205C32.849 5.88648 33.1245 6.11413 33.3154 6.40032C33.4109 6.54342 33.4868 6.69952 33.5389 6.86647C33.591 7.03342 33.6192 7.20903 33.6192 7.39766C33.6192 7.647 33.5693 7.87899 33.4803 8.09146" fill="white"/>
<path d="M10.0209 7.4193C10.0209 6.85125 9.90593 6.30271 9.69765 5.80404C9.38525 5.05603 8.86457 4.41644 8.20504 3.96113C7.87528 3.73348 7.50863 3.55135 7.11595 3.4256C6.72761 3.30202 6.31541 3.23481 5.88802 3.23047C5.87717 3.23047 5.87066 3.23047 5.86632 3.23047H5.85981C5.28923 3.23047 4.73818 3.34755 4.24137 3.55786C3.49289 3.8744 2.8594 4.39909 2.41248 5.06254C2.18902 5.39426 2.01112 5.76068 1.88746 6.15311C1.76597 6.54337 1.70089 6.95965 1.70089 7.38894V7.4735H4.07649V7.38894C4.07649 7.13961 4.12638 6.90762 4.21533 6.69514C4.34984 6.37643 4.57764 6.10107 4.86401 5.91028C5.0072 5.81488 5.1634 5.739 5.33046 5.68696C5.49751 5.63493 5.67324 5.60674 5.86198 5.60674H5.86849C6.11581 5.60674 6.34361 5.65878 6.55622 5.74984C6.71459 5.81922 6.86212 5.91028 6.99446 6.02085C7.19405 6.1878 7.35677 6.39811 7.46958 6.6366C7.52599 6.75585 7.56938 6.8816 7.59975 7.01169C7.63012 7.14178 7.64531 7.27837 7.64531 7.4193V9.16898H3.66428C3.16096 9.16898 2.67716 9.27088 2.23675 9.45734C1.57722 9.73703 1.01966 10.1988 0.624815 10.7842C0.427391 11.0769 0.271187 11.4 0.162712 11.7447C0.0542374 12.0894 0 12.4602 0 12.8375V14.7454H2.3756V12.8375C2.3756 12.6553 2.41248 12.4884 2.47757 12.3366C2.57519 12.1068 2.74008 11.9073 2.94618 11.7686C3.05031 11.6992 3.16313 11.645 3.28245 11.606C3.40394 11.5691 3.52977 11.5474 3.66645 11.5474H10.0209V7.42146V7.4193Z" fill="white"/>
<path d="M20.7271 17.7213L24.8361 27.9527H22.3173L21.3714 25.5331H17.0888L16.1429 27.9527H13.6719L17.7961 17.7191C18.0369 17.1229 18.6162 16.7305 19.2605 16.7305C19.9048 16.7305 20.4863 17.1229 20.7249 17.7213M17.8265 23.4647H20.649L19.2214 19.794L17.8265 23.4647Z" fill="white"/>
<path d="M33.2817 20.4807C32.7198 19.3901 31.6784 18.7982 30.3789 18.7982C28.4698 18.7982 26.962 20.3528 26.962 22.341C26.962 24.3291 28.4698 25.8989 30.3941 25.8989C31.8867 25.8989 33.0409 25.0164 33.3446 23.7351H30.2249V21.7144H35.0303C35.525 21.7144 35.9285 22.1155 35.9285 22.612C35.9285 25.7536 33.5854 28.1581 30.3789 28.1581C27.1724 28.1581 24.5234 25.5455 24.5234 22.3388C24.5234 19.1321 27.1702 16.5195 30.3941 16.5195C32.6569 16.5195 34.5487 17.6101 35.462 19.4205L33.2795 20.4785L33.2817 20.4807Z" fill="white"/>
<path d="M11.1946 16.7305H11.1143C10.4331 16.7305 9.8148 17.1294 9.53277 17.7495L6.4651 24.5357L3.39743 17.7495C3.11757 17.1294 2.49709 16.7305 1.81587 16.7305H1.7356C0.77668 16.7305 0 17.5067 0 18.465V27.9527H2.34089V20.7545L5.62984 27.9527H7.29819L10.5871 20.7545V27.9527H12.928V18.465C12.928 17.5067 12.1514 16.7305 11.1924 16.7305" fill="white"/>
<path d="M35.7912 26.9317C35.7912 26.7799 35.8194 26.6368 35.878 26.5024C35.9366 26.368 36.0147 26.2509 36.1145 26.1512C36.2143 26.0514 36.3293 25.9734 36.4638 25.9149C36.5983 25.8563 36.7415 25.8281 36.8933 25.8281C37.0452 25.8281 37.1884 25.8563 37.3229 25.9149C37.4574 25.9734 37.5746 26.0514 37.6744 26.1512C37.7742 26.2509 37.8523 26.368 37.9108 26.5024C37.9694 26.6368 37.9976 26.7799 37.9976 26.9317C37.9976 27.0835 37.9694 27.2287 37.9108 27.361C37.8523 27.4932 37.7742 27.6103 37.6744 27.7101C37.5746 27.8098 37.4574 27.8878 37.3229 27.9464C37.1884 28.0049 37.0452 28.0331 36.8933 28.0331C36.7415 28.0331 36.5961 28.0049 36.4616 27.9464C36.3271 27.8878 36.2121 27.8098 36.1123 27.7101C36.0125 27.6103 35.9344 27.4954 35.8758 27.361C35.8173 27.2287 35.7891 27.0856 35.7891 26.9317M35.9279 26.9404C35.9279 27.0748 35.9539 27.2006 36.0038 27.3176C36.0537 27.4347 36.1232 27.5366 36.2121 27.6255C36.3011 27.7144 36.403 27.7838 36.5202 27.8336C36.6373 27.8857 36.7632 27.9095 36.8977 27.9095C37.0322 27.9095 37.1558 27.8835 37.273 27.8336C37.3902 27.7816 37.4943 27.7122 37.5832 27.6255C37.6722 27.5388 37.7416 27.4347 37.7915 27.3176C37.8414 27.2006 37.8674 27.0748 37.8674 26.9404C37.8674 26.806 37.8414 26.6824 37.7915 26.5653C37.7416 26.4482 37.6722 26.3441 37.5832 26.2552C37.4943 26.1664 37.3902 26.097 37.273 26.0449C37.1558 25.9951 37.03 25.9691 36.8977 25.9691C36.7653 25.9691 36.6373 25.9951 36.5202 26.0449C36.403 26.0948 36.3011 26.1664 36.2121 26.2552C36.1232 26.3441 36.0537 26.4482 36.0038 26.5653C35.9539 26.6845 35.9279 26.8081 35.9279 26.9404ZM36.531 27.4586V26.4048H36.9845C37.0864 26.4048 37.1624 26.4309 37.2166 26.4851C37.2708 26.5393 37.2969 26.6173 37.2969 26.7236C37.2969 26.8146 37.2752 26.8862 37.2339 26.9404C37.1927 26.9946 37.1342 27.0249 37.0604 27.0379L37.3055 27.4607H37.145L36.915 27.0466H36.672V27.4607H36.531V27.4586ZM36.672 26.9252H37.0278C37.0669 26.9252 37.0973 26.9122 37.1146 26.8883C37.1342 26.8645 37.1428 26.8363 37.1428 26.8038V26.639C37.1428 26.5631 37.1038 26.5241 37.0278 26.5241H36.672V26.9252Z" fill="white"/>
</svg>
