<?xml version="1.0" standalone="no"?>
<!DOCTYPE svg PUBLIC "-//W3C//DTD SVG 20010904//EN"
 "http://www.w3.org/TR/2001/REC-SVG-20010904/DTD/svg10.dtd">
<svg version="1.0" xmlns="http://www.w3.org/2000/svg"
 width="1216.000000pt" height="1216.000000pt" viewBox="0 0 1216.000000 1216.000000"
 preserveAspectRatio="xMidYMid meet">
<metadata>
Created by potrace 1.14, written by Peter Selinger 2001-2017
</metadata>
<g transform="translate(0.000000,1216.000000) scale(0.100000,-0.100000)"
fill="#000000" stroke="none">
<path d="M3495 8875 c0 -1633 2 -1846 15 -1849 24 -6 6822 1 6850 7 14 3 41 8
60 11 53 8 79 14 88 20 5 3 22 8 38 11 37 8 43 10 77 23 16 7 33 12 38 12 24
0 216 104 291 157 93 65 214 180 282 268 26 33 50 65 54 70 25 31 79 134 75
139 -4 3 -2 6 4 6 9 0 52 83 59 115 1 6 12 37 24 70 48 138 64 243 64 420 0
122 -7 203 -22 265 -5 19 -9 37 -9 40 0 3 -11 39 -24 80 -12 41 -22 78 -21 83
1 4 -3 7 -9 7 -5 0 -8 4 -5 8 10 17 -126 265 -171 310 -7 7 -13 17 -13 21 0
11 -150 164 -210 213 -324 265 -745 361 -1157 263 -13 -3 -32 -7 -44 -10 -122
-27 -401 -171 -461 -239 -10 -10 -18 -16 -18 -12 0 6 -36 -25 -101 -87 -16
-15 -29 -29 -29 -32 0 -3 -17 -22 -37 -44 -144 -147 -279 -436 -309 -659 -3
-26 -8 -56 -10 -67 -11 -52 -5 -262 11 -360 12 -81 64 -253 91 -307 8 -15 14
-31 14 -36 0 -5 -986 -8 -2367 -8 l-2367 1 0 1468 0 1467 -375 0 -376 0 0
-1845z m6795 41 c19 -3 42 -9 50 -13 8 -3 24 -8 34 -10 23 -4 120 -55 124 -65
2 -5 8 -8 13 -8 11 0 54 -36 88 -74 14 -16 36 -40 49 -54 12 -14 22 -31 22
-38 0 -8 5 -14 10 -14 6 0 10 -5 10 -10 0 -6 9 -30 20 -53 30 -62 41 -112 44
-207 3 -96 -13 -181 -49 -256 -74 -156 -196 -257 -380 -315 -64 -20 -229 -16
-300 8 -74 25 -155 64 -155 75 0 4 -6 8 -14 8 -25 0 -140 134 -173 200 -31 62
-60 152 -63 195 -14 193 39 343 166 469 90 90 197 148 298 160 21 3 40 6 41 8
5 5 124 0 165 -6z"/>
<path d="M1777 9684 c-2 -2 -28 -6 -58 -8 -95 -10 -219 -38 -286 -67 -24 -10
-43 -17 -43 -14 0 2 -36 -14 -80 -36 -44 -21 -85 -39 -90 -39 -6 0 -10 -4 -10
-8 0 -5 -12 -14 -26 -20 -74 -34 -276 -210 -341 -297 -13 -17 -36 -47 -53 -69
-16 -21 -30 -42 -30 -47 0 -4 -6 -14 -13 -21 -20 -20 -91 -165 -120 -243 -51
-137 -73 -250 -81 -407 l-4 -78 36 0 c289 -3 715 -1 719 4 4 3 8 30 9 60 2 30
8 74 14 97 16 58 71 179 81 179 5 0 9 4 9 10 0 21 74 97 138 141 139 98 321
128 487 83 11 -3 54 -22 95 -42 56 -27 93 -54 147 -110 40 -41 73 -80 73 -87
0 -7 4 -15 8 -17 11 -4 61 -113 67 -145 2 -16 8 -41 13 -58 5 -16 8 -172 8
-345 l-1 -314 -700 -2 c-385 -1 -711 -4 -724 -7 -12 -4 -42 -8 -65 -11 -44 -5
-160 -39 -214 -62 -17 -8 -49 -21 -70 -30 -154 -67 -333 -215 -443 -364 -75
-103 -168 -290 -184 -370 -2 -8 -8 -33 -13 -55 -23 -88 -25 -124 -29 -496 l-4
-386 48 1 c26 1 54 -3 61 -8 7 -5 12 -5 12 0 0 10 270 10 295 0 8 -3 15 -2 15
2 0 4 21 6 47 4 27 -2 53 -3 58 -3 6 0 43 2 83 3 39 2 72 0 72 -4 0 -4 10 -4
23 1 12 4 28 6 35 4 13 -5 13 -20 13 379 -1 275 5 332 43 412 48 102 175 200
286 222 19 4 503 8 1075 8 l1040 1 1 715 c1 393 -1 719 -4 724 -3 5 -6 30 -8
56 -1 26 -12 85 -24 131 -12 46 -23 91 -25 99 -16 74 -142 328 -167 338 -4 2
-8 9 -8 15 0 7 -10 24 -23 39 -12 14 -38 46 -57 69 -59 72 -162 168 -250 230
-78 56 -223 135 -280 153 -14 5 -27 9 -30 11 -50 22 -204 60 -285 71 -45 6
-263 12 -268 8z"/>
<path d="M1305 6769 c-106 -33 -198 -111 -242 -206 -31 -67 -35 -84 -37 -168
-5 -162 101 -316 254 -370 35 -12 131 -29 155 -27 115 10 209 61 296 159 37
42 71 135 74 207 7 125 -27 218 -110 302 -105 106 -254 145 -390 103z"/>
<path d="M9637 5434 c-1 -1 -36 -4 -77 -8 -70 -6 -88 -8 -165 -21 -83 -14
-216 -51 -315 -86 -95 -35 -268 -116 -288 -136 -8 -7 -17 -11 -22 -8 -5 3 -10
2 -12 -2 -1 -5 -42 -34 -90 -66 -95 -64 -238 -184 -308 -261 -25 -27 -53 -58
-62 -68 -10 -10 -18 -22 -18 -28 0 -5 -7 -10 -16 -10 -8 0 -13 -4 -10 -9 4 -5
3 -11 -1 -13 -12 -5 -73 -86 -73 -97 0 -5 -4 -11 -8 -13 -12 -4 -92 -139 -128
-213 -16 -33 -32 -61 -36 -63 -5 -2 -8 -10 -8 -17 0 -8 -6 -29 -14 -47 -12
-28 -23 -56 -31 -78 -1 -3 -5 -12 -8 -20 -12 -28 -55 -185 -62 -225 -4 -22 -9
-53 -12 -70 -3 -16 -6 -43 -8 -60 -2 -16 -4 -30 -5 -30 -8 0 -13 -285 -6 -370
6 -62 15 -132 21 -165 3 -14 10 -49 16 -79 41 -210 211 -575 333 -712 14 -16
26 -33 26 -38 0 -13 237 -252 285 -287 22 -16 49 -37 59 -46 11 -10 27 -20 37
-23 9 -3 20 -12 23 -20 3 -8 12 -15 21 -15 8 0 15 -4 15 -9 0 -5 8 -11 18 -15
9 -3 31 -15 47 -26 55 -36 199 -107 280 -138 93 -35 116 -44 130 -48 96 -29
192 -50 315 -70 66 -10 375 -14 440 -4 36 5 83 11 105 14 73 9 206 39 250 56
11 4 45 15 75 25 59 19 252 105 260 116 3 3 19 13 36 22 35 18 156 97 164 107
3 3 23 19 45 35 48 36 210 196 245 244 14 18 33 41 43 49 9 9 17 22 17 29 0 7
5 13 10 13 6 0 10 6 10 14 0 8 4 16 9 18 12 4 96 147 126 213 55 121 79 182
90 225 1 3 4 12 8 20 7 17 29 98 33 120 1 8 9 49 18 92 20 98 30 210 30 325 0
106 -25 175 -84 231 -37 36 -108 73 -150 79 -18 2 -1505 6 -1577 3 -8 0 -11
-83 -10 -322 l2 -323 492 0 c270 0 494 -3 497 -6 3 -3 1 -21 -5 -40 -12 -38
-16 -51 -18 -61 -1 -4 -20 -43 -42 -85 -71 -136 -153 -231 -276 -319 -56 -41
-210 -120 -251 -129 -9 -2 -46 -11 -82 -20 -88 -22 -136 -27 -260 -28 -144 -1
-169 2 -370 57 -42 11 -164 75 -235 122 -131 88 -238 198 -324 335 -63 100
-130 271 -146 369 -4 25 -10 54 -12 65 -3 11 -6 41 -7 67 0 27 -4 48 -7 48 -3
0 -4 12 -2 28 1 15 5 68 8 117 7 136 10 156 47 280 22 76 95 238 109 243 5 2
9 8 9 14 0 17 84 130 141 189 130 133 276 225 444 279 39 12 77 24 85 27 8 3
24 7 35 8 11 1 52 6 90 10 106 13 242 9 340 -9 69 -13 83 -16 150 -37 203 -64
385 -203 506 -386 21 -32 44 -66 51 -76 14 -20 -12 -31 606 271 88 43 93 47
87 71 -3 14 -13 31 -21 37 -7 6 -14 16 -14 22 0 11 -90 148 -126 191 -72 87
-191 211 -202 211 -4 0 -20 14 -36 30 -72 73 -405 270 -457 270 -9 0 -19 3
-21 8 -1 4 -37 18 -78 31 -41 13 -82 26 -90 29 -22 8 -20 7 -80 20 -79 17
-101 22 -140 27 -19 3 -44 7 -55 10 -49 10 -368 26 -378 19z"/>
<path d="M486 5362 c-2 -2 -20 -5 -41 -8 -119 -15 -300 -138 -352 -239 -9 -16
-19 -32 -22 -35 -13 -10 -39 -76 -59 -150 -4 -14 -7 -729 -7 -1590 l0 -1565
370 0 370 0 5 1145 c5 1161 5 1170 35 1080 4 -11 69 -153 146 -318 22 -46 39
-85 39 -87 0 -2 21 -48 46 -102 71 -150 87 -187 86 -195 -1 -5 2 -8 8 -8 6 0
9 -3 8 -7 -1 -9 7 -30 55 -133 154 -333 211 -462 209 -472 -1 -5 2 -8 7 -8 5
0 13 -10 17 -22 4 -13 22 -57 41 -98 19 -41 46 -100 60 -130 14 -30 39 -84 55
-120 17 -36 39 -84 49 -108 11 -23 29 -63 41 -90 12 -26 22 -49 23 -52 3 -9
94 -205 112 -240 l18 -35 267 0 c248 0 267 1 272 18 2 9 4 18 3 20 -2 4 38 72
48 79 6 4 7 8 3 8 -6 0 75 185 107 242 8 14 15 33 15 42 0 9 5 16 10 16 6 0
10 7 10 16 0 9 7 28 15 42 13 25 77 161 80 172 0 3 13 30 27 60 39 83 66 144
68 155 1 6 9 18 17 28 9 9 13 17 9 17 -3 0 4 19 16 43 12 23 23 44 23 47 2 5
22 51 72 160 17 36 42 90 55 120 14 30 40 87 58 125 43 92 73 159 75 165 1 3
16 36 34 74 17 39 38 84 46 100 7 17 36 80 64 140 28 59 51 110 51 111 0 5 87
194 115 248 l24 49 0 -1034 c0 -568 0 -1085 1 -1148 l0 -115 370 0 c322 0 371
2 374 15 2 8 3 715 2 1570 -2 1156 -5 1562 -14 1583 -6 15 -9 27 -6 27 4 0 2
6 -3 13 -5 6 -17 33 -27 60 -10 26 -22 47 -27 47 -5 0 -9 7 -9 15 0 19 -139
165 -157 165 -6 0 -13 4 -15 8 -6 15 -121 63 -182 76 -68 14 -271 11 -271 -4
0 -1 -11 -3 -25 -6 -34 -6 -158 -71 -188 -97 -108 -99 -119 -117 -243 -382
-18 -38 -33 -72 -34 -75 -5 -16 -21 -52 -46 -108 -16 -34 -29 -67 -29 -72 0
-6 -5 -10 -12 -10 -6 0 -9 -3 -5 -6 3 -3 -8 -32 -24 -64 -16 -31 -29 -60 -29
-63 0 -3 -15 -38 -34 -79 -77 -166 -96 -210 -96 -219 0 -5 -4 -9 -8 -9 -5 0
-9 -6 -9 -12 0 -7 -11 -38 -26 -68 -45 -97 -97 -211 -97 -215 0 -1 -20 -45
-44 -96 -73 -157 -96 -209 -96 -219 0 -6 -5 -10 -12 -10 -6 0 -8 -3 -5 -7 4
-3 2 -12 -4 -20 -6 -7 -8 -13 -4 -13 4 0 3 -6 -3 -12 -5 -7 -40 -80 -77 -163
-37 -82 -77 -172 -90 -200 -46 -101 -82 -181 -96 -212 -8 -18 -16 -33 -19 -33
-6 0 -80 157 -80 170 0 6 -5 10 -12 10 -6 0 -9 3 -5 6 3 4 -1 21 -10 38 -9 17
-18 36 -19 41 -2 9 -40 94 -99 220 -57 123 -116 253 -120 265 -1 3 -14 32 -29
65 -15 33 -34 74 -41 90 -7 17 -34 74 -59 128 -25 55 -46 101 -46 103 0 2 -14
34 -31 71 -27 60 -69 151 -199 438 -17 39 -59 131 -92 205 -55 120 -75 165
-144 315 -21 47 -79 127 -120 169 -48 47 -199 135 -211 122 -4 -3 -11 -2 -17
3 -6 5 -27 12 -46 16 -39 7 -198 13 -204 7z"/>
<path d="M6070 5358 c-50 -10 -71 -18 -147 -56 -29 -14 -53 -31 -53 -36 0 -5
-3 -7 -6 -4 -9 10 -90 -75 -127 -133 -18 -30 -48 -92 -67 -139 -18 -47 -39
-98 -46 -115 -7 -16 -46 -113 -87 -215 -40 -102 -77 -194 -82 -205 -5 -11 -9
-22 -10 -25 -1 -3 -7 -18 -14 -35 -7 -16 -35 -86 -62 -155 -28 -69 -54 -134
-59 -145 -5 -11 -32 -78 -61 -150 -28 -71 -57 -143 -65 -160 -7 -16 -45 -111
-84 -210 -39 -99 -76 -188 -81 -199 -6 -10 -12 -26 -14 -35 -2 -9 -52 -133
-110 -276 -59 -143 -107 -264 -109 -270 -1 -5 -8 -20 -14 -32 -7 -13 -10 -23
-7 -23 3 0 -4 -17 -15 -37 -11 -21 -20 -41 -20 -44 0 -4 -9 -26 -19 -50 -11
-24 -20 -47 -21 -51 0 -4 -14 -39 -31 -78 -31 -73 -51 -123 -50 -127 0 -2 -13
-34 -30 -73 -40 -94 -52 -123 -55 -135 -1 -5 -34 -88 -73 -183 -39 -96 -71
-177 -71 -180 0 -4 176 -7 391 -7 l391 0 18 38 c10 20 17 37 15 37 -2 0 13 37
32 83 19 45 36 89 38 97 2 8 20 53 39 100 20 47 36 91 36 98 0 6 4 12 8 12 5
0 9 6 9 13 0 13 84 232 105 274 l11 23 684 -1 c627 -1 685 -2 690 -17 2 -10 9
-26 13 -37 22 -49 42 -101 45 -115 2 -8 27 -71 55 -140 28 -69 53 -132 55
-141 2 -8 11 -33 21 -55 9 -21 18 -43 19 -49 5 -21 78 -200 86 -210 10 -14
805 -14 800 0 -2 6 -6 17 -8 25 -3 8 -11 29 -18 45 -7 17 -38 94 -70 173 -31
79 -61 156 -67 170 -6 15 -12 29 -13 32 -1 3 -9 22 -18 44 -9 21 -17 45 -17
52 0 8 -5 14 -10 14 -6 0 -9 3 -8 8 2 4 -26 79 -62 167 -36 88 -65 162 -66
165 0 3 -5 16 -11 30 -6 14 -48 117 -93 230 -45 113 -88 219 -95 235 -7 17
-20 50 -30 75 -9 25 -23 59 -30 75 -7 17 -44 107 -80 200 -37 94 -76 190 -87
215 -11 24 -21 49 -23 55 -2 11 -20 55 -40 100 -7 16 -17 41 -21 55 -4 14 -17
48 -30 77 -13 28 -24 55 -24 58 0 4 -6 21 -14 38 -7 18 -23 57 -36 87 -12 30
-29 67 -37 82 -7 15 -14 30 -13 33 0 3 -7 21 -15 41 -8 20 -15 40 -15 45 0 9
-4 17 -31 70 -6 12 -12 29 -14 38 -3 14 -58 152 -90 226 -7 17 -34 84 -60 150
-62 160 -72 181 -110 240 -31 47 -99 125 -110 125 -3 0 -24 14 -47 30 -22 17
-49 30 -59 30 -10 0 -20 4 -23 9 -17 27 -190 45 -276 29z m106 -1043 c10 -30
21 -55 26 -55 4 0 8 -7 8 -15 0 -8 16 -55 36 -103 19 -48 36 -91 38 -97 1 -8
107 -280 136 -350 48 -118 172 -444 172 -452 0 -4 4 -13 9 -20 8 -9 -98 -11
-440 -11 -248 0 -451 4 -451 8 0 5 5 21 12 37 6 15 12 33 14 38 1 6 16 46 34
90 17 44 32 85 34 90 1 6 7 19 13 30 6 11 12 23 12 27 3 14 64 176 81 213 5
11 12 31 15 45 4 14 26 75 50 135 24 61 64 166 90 235 25 69 53 137 61 152 8
15 14 30 13 35 -9 55 17 32 37 -32z"/>
<path d="M11765 2455 c-94 -21 -173 -63 -219 -117 -29 -34 -69 -100 -71 -118
0 -3 -4 -11 -8 -17 -5 -7 -6 -17 -2 -22 3 -5 1 -12 -3 -15 -8 -5 -8 -123 1
-156 15 -61 107 -190 136 -190 5 0 11 -4 13 -10 2 -5 28 -20 58 -33 45 -20 69
-24 130 -22 98 4 106 6 163 34 62 30 157 124 157 154 0 7 3 17 7 21 29 29 39
224 14 249 -6 6 -11 19 -11 29 0 10 -4 18 -10 18 -5 0 -10 7 -10 15 0 25 -84
109 -138 138 -56 30 -161 52 -207 42z m160 -69 c22 -9 41 -17 43 -16 12 4 104
-108 122 -147 64 -146 4 -319 -139 -397 -63 -34 -189 -48 -218 -25 -12 10 -15
10 -9 1 12 -20 -102 45 -132 75 -27 27 -86 113 -77 113 2 0 0 12 -6 27 -10 26
-13 113 -6 143 30 121 117 212 232 241 45 12 145 4 190 -15z"/>
<path d="M11690 2099 l0 -170 22 3 c21 3 23 9 23 58 0 67 7 80 43 75 15 -2 30
-4 33 -4 4 -1 19 -25 34 -53 37 -71 43 -78 69 -74 11 3 23 5 26 5 3 1 0 5 -6
9 -6 4 -24 32 -42 62 l-31 56 22 9 c37 17 58 72 46 126 -8 38 -15 47 -43 57
-18 7 -69 12 -114 12 l-82 0 0 -171z m171 127 c25 -5 26 -9 25 -56 -1 -27 -5
-53 -9 -57 -8 -7 -115 -13 -133 -6 -6 2 -10 29 -10 61 l1 57 35 5 c36 6 45 5
91 -4z"/>
</g>
</svg>
